<svg width="200" height="219" viewBox="0 0 200 219" fill="none" xmlns="http://www.w3.org/2000/svg">
<g clip-path="url(#clip0)">
<path d="M100.149 0C44.8379 0 0 44.8212 0 100.112C0 123.091 7.78047 144.272 20.7697 161.205L24.18 158.513C16.7536 148.817 11.1908 137.686 8.07864 125.605C9.5136 123.929 24.2452 128.772 24.2452 128.772C24.2452 128.772 31.3735 130.328 39.8062 126.08C48.2482 121.833 57.2307 121.833 57.2307 121.833C54.9571 118.182 52.9817 118.843 44.4838 119.262C35.9858 119.626 57.473 103.465 54.2397 103.763C51.0716 104.061 42.2102 109.026 39.9366 109.864C37.6631 110.702 29.7615 110.162 27.2456 110.46C24.7298 110.758 20.956 113.217 16.707 115.723C12.4581 118.228 6.83004 119.43 6.83004 119.43C5.99143 117.334 7.49161 103.512 13.9583 94.6535C20.4249 85.8607 26.2859 81.6692 28.5035 82.2653C30.7212 82.8614 29.044 86.0935 29.4633 87.2299C29.8826 88.3663 31.2616 87.9471 32.2773 89.3256C33.293 90.7042 32.9389 91.3003 32.9389 94.5324C32.9389 97.6993 29.1092 99.8603 26.8356 103.567C24.618 107.275 27.5531 106.977 29.0533 105.719C30.5535 104.462 41.8002 102.31 44.6795 100.391C47.5494 98.4724 51.9195 94.2903 54.0813 93.0328C56.2337 91.7753 67.7879 80.5235 69.8845 79.0891C71.981 77.6546 76.23 74.5436 78.0842 72.9229C79.9385 71.3115 83.4141 65.3875 85.8647 64.1859C88.3153 62.9937 94.2415 58.9791 97.6612 56.8275C101.081 54.6759 102.572 47.9136 104.789 47.4944C107.007 47.0753 111.974 51.807 112.029 53.1203C112.085 54.4337 112.449 58.3271 116.698 59.7057C120.947 61.1401 127.889 66.291 127.236 68.0235C126.575 69.7001 114.843 62.4628 115.328 65.3316C115.803 68.2005 123.826 74.6088 124.73 76.2202C125.624 77.8316 125.326 80.5328 126.342 84.9572C127.357 89.3815 129.454 88.6084 130.768 92.3808C132.082 96.1531 130.348 97.1125 133.041 101.714C135.799 106.325 136.992 107.582 141.959 111.764C146.925 116.012 148.546 113.022 151.174 114.279C153.746 115.537 152.851 113.441 152.851 113.441C152.851 113.441 150.876 110.749 151.714 109.613C152.609 108.42 155.423 107.219 159.793 112.425C164.163 117.632 160.986 124.814 160.986 124.814L158.293 127.031L156.196 128.884L154.64 131.874L154.342 133.374H155.535L156.728 132.656L158.34 132.116L160.855 131.874H163.073L165.589 131.576H168.822L170.975 131.036L172.894 129.778L174.991 127.86L177.143 125.587L178.643 124.087L180.199 123.789L181.457 123.91L182.352 124.572L182.594 125.885L182.352 128.456L182.408 129.713H183.125L184.56 128.875L186.48 127.683L188.996 126.006L191.148 125.112H191.987C188.874 137.323 183.302 148.631 175.764 158.383L178.997 161.252C192.164 144.318 200.009 123.016 200.009 99.9162C200.242 44.8212 155.46 0 100.149 0ZM189.704 99.5157L186.592 99.9348L183.181 99.5715L180.963 98.8543L178.867 97.0008L176.77 94.905L174.497 92.7534L172.521 90.8346L170.071 88.9158L168.272 88.2545L166.595 87.4162L163.604 85.7396L161.032 84.3052L158.461 82.6285L156.01 81.1941L152.954 79.5827L151.342 78.0831L149.907 76.6487L148.649 74.9721L147.689 73.4166L147.028 71.6841L146.189 70.2496L145.052 68.275L143.496 66.4214L142.238 64.7448L140.44 63.3104L139.601 62.649L138.045 62.2299L136.61 61.8666L134.514 61.0283L131.457 59.715L129.305 58.9978L127.031 58.1036L124.758 56.9672L122.065 55.9519L119.968 54.8156L117.574 53.3812L115.654 52.1237L113.735 50.9873L111.815 49.674L109.961 48.1744L107.985 46.9821L106.429 46.6841L104.873 46.2649L103.858 46.6282L102.842 47.7645L101.23 50.5216L98.9564 54.2288L96.981 55.7284L93.2072 58.2992L89.8528 60.516L86.079 62.4907L83.088 64.0462L80.8796 65.5831L78.7831 67.1945L77.7674 68.75L76.0902 71.1438L74.8975 72.6435L72.2046 74.497L69.2136 76.3506L66.763 77.9061L64.3682 79.5175L63.1103 80.5328L59.9795 82.3398L57.7712 84.1375L54.659 86.3543L53.3451 88.152L51.5468 89.4654L50.2236 90.7787L48.9098 91.6729L47.2978 91.5518L44.782 90.6576L41.7909 89.6423L37.7842 87.5466L34.6627 85.7489L31.5505 83.234L28.1401 80.7191L26.2206 81.4363L22.5121 83.6531L16.1666 88.8599L5.38576 98.9195C7.60343 49.7858 49.208 10.6557 100.149 10.6557C149.953 10.6557 190.84 48.1185 194.735 95.6874L194.139 96.5257L192.042 98.3793L189.704 99.5157Z" fill="#D1214A"/>
<path d="M128.941 122.075C122.596 119.504 117.387 123.389 114.815 116.207C112.244 109.026 113.502 108.066 102.907 100.41C92.3127 92.7534 90.5143 90.1733 90.3373 86.7083C90.095 83.234 92.3127 81.3245 93.8129 80.421C95.3131 79.5268 97.2885 78.1483 97.8196 77.0678C98.36 76.0525 98.6582 73.9009 98.9564 73.5376C99.2545 73.1744 102.311 71.0227 99.8509 70.7806C97.4003 70.5384 96.981 70.3614 96.0212 71.0227C95.0615 71.6841 89.3775 77.31 82.2493 80.2999C78.4197 81.9206 69.3813 84.0164 72.4934 84.9106C75.6056 85.8048 81.7089 85.1528 87.0387 91.9709C92.3686 98.7891 96.9716 101.965 96.9716 101.965C96.9716 101.965 99.0682 103.577 98.9471 106.576C98.8911 109.566 100.867 110.823 103.559 110.227C106.252 109.631 107.687 114.838 105.358 116.151C102.963 117.465 99.3757 121.116 97.0369 123.212C94.7633 125.307 83.5631 127.04 83.5631 127.04C83.5631 127.04 79.4353 127.338 79.4353 128.232C79.4353 129.126 98.0525 133.262 103.802 130.924C109.607 128.53 103.382 126.677 116.195 127.45C129.007 128.167 125.41 124.339 131.7 124.935C131.457 124.832 135.287 124.646 128.941 122.075ZM69.7447 148.23C60.8274 143.564 53.5781 150.028 53.5781 150.028L11.4983 185.451L22.335 194.067L35.2031 182.517C35.2031 182.517 44.959 193.35 59.6906 195.678L57.2959 212.733L69.8658 217.344L76.994 162.826C76.9847 162.77 79.6776 153.428 69.7447 148.23ZM65.1323 162.165L61.6008 184.361C50.9411 181.548 44.1204 174.609 44.1204 174.609L60.3988 159.65C60.3988 159.65 62.3183 158.038 63.9303 159.054C65.6075 160.078 65.1323 162.165 65.1323 162.165ZM123.258 162.77L130.386 217.288L142.956 212.677L140.561 195.622C155.227 193.228 165.048 182.461 165.048 182.461L177.916 194.011L188.753 185.395L146.729 150.028C146.729 150.028 139.489 143.629 130.563 148.23C120.621 153.428 123.258 162.77 123.258 162.77ZM136.312 159.054C137.924 158.038 139.843 159.65 139.843 159.65L156.122 174.609C156.122 174.609 149.301 181.548 138.641 184.361L135.11 162.165C135.11 162.165 134.691 160.078 136.312 159.054ZM93.4495 153.251H106.504V218.182H93.4495V153.251Z" fill="#D1214A"/>
</g>
<defs>
<clipPath id="clip0">
<rect width="200" height="218.182" fill="white"/>
</clipPath>
</defs>
</svg>
