<svg width="50" height="50" viewBox="0 0 50 50" fill="none" xmlns="http://www.w3.org/2000/svg">
<path d="M25.0002 18.4912C21.4162 18.4912 18.4914 21.416 18.4914 25C18.4914 28.584 21.4162 31.5088 25.0002 31.5088C28.5842 31.5088 31.509 28.584 31.509 25C31.509 21.416 28.5842 18.4912 25.0002 18.4912ZM44.5217 25C44.5217 22.3047 44.5461 19.6338 44.3948 16.9433C44.2434 13.8183 43.5305 11.0449 41.2454 8.75975C38.9553 6.46971 36.1868 5.76171 33.0618 5.61034C30.3664 5.45897 27.6955 5.48339 25.0051 5.48339C22.3098 5.48339 19.6389 5.45897 16.9485 5.61034C13.8235 5.76171 11.05 6.4746 8.76488 8.75975C6.47484 11.0498 5.76683 13.8183 5.61547 16.9433C5.4641 19.6387 5.48851 22.3096 5.48851 25C5.48851 27.6904 5.4641 30.3662 5.61547 33.0566C5.76683 36.1816 6.47972 38.9551 8.76488 41.2402C11.0549 43.5303 13.8235 44.2383 16.9485 44.3896C19.6438 44.541 22.3147 44.5166 25.0051 44.5166C27.7004 44.5166 30.3713 44.541 33.0618 44.3896C36.1868 44.2383 38.9602 43.5254 41.2454 41.2402C43.5354 38.9502 44.2434 36.1816 44.3948 33.0566C44.551 30.3662 44.5217 27.6953 44.5217 25V25ZM25.0002 35.0146C19.4582 35.0146 14.9856 30.542 14.9856 25C14.9856 19.458 19.4582 14.9853 25.0002 14.9853C30.5422 14.9853 35.0149 19.458 35.0149 25C35.0149 30.542 30.5422 35.0146 25.0002 35.0146ZM35.425 16.914C34.1311 16.914 33.0862 15.8691 33.0862 14.5752C33.0862 13.2812 34.1311 12.2363 35.425 12.2363C36.719 12.2363 37.7639 13.2812 37.7639 14.5752C37.7643 14.8824 37.7041 15.1867 37.5867 15.4707C37.4693 15.7546 37.297 16.0126 37.0797 16.2299C36.8625 16.4471 36.6045 16.6194 36.3205 16.7368C36.0366 16.8542 35.7323 16.9144 35.425 16.914V16.914Z" fill="#35DF91"/>
</svg>
