<svg width="200" height="120" viewBox="0 0 200 120" fill="none" xmlns="http://www.w3.org/2000/svg">
<g clip-path="url(#clip0)">
<path d="M200 0H0V119.797H200V0Z" fill="#C40D42"/>
<path d="M52.2801 63.773C52.3503 63.773 52.4071 63.7159 52.4071 63.6469C52.4071 63.5764 52.3503 63.5193 52.2801 63.5193C52.2091 63.5193 52.1531 63.5764 52.1531 63.6469C52.1531 63.7159 52.2091 63.773 52.2801 63.773Z" fill="white"/>
<path d="M52.0345 63.773C52.1053 63.773 52.1615 63.7159 52.1615 63.6469C52.1615 63.5764 52.1053 63.5193 52.0345 63.5193C51.9637 63.5193 51.9067 63.5764 51.9067 63.6469C51.9069 63.7159 51.9639 63.773 52.0345 63.773Z" fill="white"/>
<path d="M43.1793 58.6337C44.1367 57.4334 44.7169 55.7762 44.5653 53.8157C44.3853 51.5717 43.2589 50.1192 41.5773 49.2225C39.8133 48.2885 37.5139 48.231 34.8369 48.231H27.3981C27.0387 48.231 26.7483 48.5215 26.7483 48.8809V70.8019C26.7483 71.1577 27.0335 71.4462 27.3905 71.4508H35.3441C36.7895 71.4508 38.1321 71.467 39.3343 71.2775C41.0073 71.0046 42.3793 70.405 43.3793 69.4534C43.6267 69.2441 46.7471 66.491 45.3727 61.8287C45.3727 61.8285 44.8733 60.0649 43.1793 58.6337ZM32.9239 52.9897H32.9285H36.5693V52.9929C38.0033 53.0552 39.1431 54.0283 39.1431 55.2199C39.1431 56.4117 38.0035 57.3846 36.5693 57.4467V57.4501L32.9285 57.4493C32.5695 57.4493 32.2783 57.1594 32.2783 56.8008L32.2695 53.6098C32.2841 53.2648 32.5733 52.9897 32.9239 52.9897ZM37.0151 66.8079C37.0105 66.8079 37.0051 66.8079 37.0005 66.8079H32.9185C32.5587 66.8079 32.2681 66.5182 32.2681 66.1594L32.2697 62.9644C32.2697 62.6435 32.5381 62.3239 32.9201 62.3255H37.0005C37.0051 62.3255 37.0105 62.3255 37.0151 62.3255C38.5165 62.3255 39.7337 63.3298 39.7337 64.5671C39.7335 65.8048 38.5165 66.8079 37.0151 66.8079Z" fill="white"/>
<path d="M62.1661 50.2915H57.9383C57.5955 50.2915 57.2959 50.5806 57.2959 50.9404V63.6285C56.7817 63.8563 56.2873 64.0562 55.5063 64.1915C55.0569 64.273 54.4849 64.3433 53.9653 64.3147C52.6443 64.1628 52.4261 63.0189 52.4261 63.0189L52.4227 63.0235C52.2497 62.2542 52.2611 61.2507 52.2223 60.4447C52.1623 59.2196 52.2223 57.9859 52.2223 56.8668V50.9404C52.2223 50.588 51.9331 50.2915 51.5701 50.2915H47.3423C46.9997 50.2915 46.7007 50.5806 46.7007 50.9404V59.3617C46.7007 60.6074 46.7203 61.802 46.8265 62.9051C47.2437 66.4871 50.2923 69.2677 53.9913 69.2677C54.4391 69.2677 54.8773 69.227 55.3027 69.1479C55.3027 69.1487 55.3027 69.1497 55.3027 69.1497C55.4317 69.125 55.5581 69.0996 55.6829 69.0705C56.9383 68.7662 61.6297 66.9878 62.8177 66.5739V50.9404C62.8177 50.5882 62.5291 50.2915 62.1661 50.2915Z" fill="white"/>
<path d="M75.8926 55.2338C75.8758 55.2358 74.9978 55.1649 74.4226 55.9633C73.2584 57.5982 71.1962 60.5981 71.1938 60.5995C71.1218 60.7067 70.9992 60.7774 70.8604 60.7774C70.6372 60.7774 70.4526 60.5985 70.4526 60.3765C70.4526 60.3611 70.4526 60.3765 70.4526 60.3611V49.0167C70.451 48.6595 70.1616 48.3706 69.8032 48.3706H69.7954H65.6184H65.568C65.2256 48.3706 64.926 48.6615 64.926 49.0197V70.7996C64.926 70.7996 64.926 71.4954 65.576 71.4954C66.1586 71.4954 69.7954 71.4954 69.7954 71.4954C70.1582 71.4954 70.4478 71.1991 70.4478 70.8465V67.2316L70.4486 67.2103C70.4486 66.9883 70.6286 66.8082 70.8502 66.8082C70.9896 66.8082 71.1126 66.8794 71.1844 66.9867C72.1086 68.1581 73.3544 69.8179 74.1662 70.7387C74.1678 70.7395 74.7672 71.4956 75.59 71.4956H81.125L75.0928 63.7024L81.125 55.234H75.8926V55.2338Z" fill="white"/>
<path d="M123.526 65.2635L123.324 65.2507C121.964 65.2068 121.556 64.7839 121.433 64.2202C121.393 64.0423 121.406 63.2283 121.406 62.948V56.7086C121.406 54.2861 121.031 52.5498 119.695 51.2975C118.419 50.0991 116.085 49.8408 113.657 49.9897C112.914 50.0315 112.185 50.0952 111.467 50.1724C109.975 50.331 109.534 50.411 108.813 50.5182C107.966 50.657 107.537 51.2632 107.404 51.7839C107.347 52.0059 107.345 52.212 107.363 52.3677L107.538 56.0207L107.54 56.0545L107.542 56.1028C107.542 56.1028 107.672 56.0968 107.542 56.1183C109.374 55.8133 109.595 55.71 112.121 55.3786C112.991 55.2646 115.091 55.0258 115.557 55.3231C115.975 55.5819 115.949 55.7883 115.913 56.4392C114.125 56.6405 112.37 56.6325 110.819 56.9461C109.261 57.2662 108.025 57.9273 107.229 59.0386C106.438 60.1625 106.138 61.8758 106.351 63.6753C106.481 64.7647 106.86 65.8333 107.537 66.7054C107.882 67.1499 108.316 67.4392 108.806 67.7161C109.846 68.3035 111.062 68.5982 112.246 68.6487C112.566 68.6623 112.987 68.6365 113.299 68.5966C113.65 68.5511 113.982 68.4814 114.312 68.3967C114.95 68.2163 115.755 67.9 116.548 67.3481L116.64 67.4262C118.11 68.6437 120.759 69.556 123.324 68.6849L123.526 68.6226V65.2635H123.526ZM115.91 63.3373C115.924 63.6538 115.689 63.9123 115.384 63.9605L115.305 63.9667C115.298 63.9667 115.29 63.969 115.284 63.969H115.293L113.787 64.11C113.685 64.1296 113.579 64.14 113.471 64.14C112.534 64.14 111.774 63.3824 111.774 62.4478C111.774 61.5128 112.534 60.7543 113.471 60.7543L115.91 60.5225V63.3373V63.3373Z" fill="white"/>
<path d="M142.781 71.4954H158.749L156.955 69.1669L156.752 69.1545C155.392 69.11 154.984 68.6865 154.861 68.1243C154.823 67.9466 154.835 67.132 154.835 66.8498V60.6112C154.835 58.1891 154.461 56.4531 153.124 55.2012C151.849 54.0018 149.515 53.7436 147.086 53.8934C146.343 53.9351 145.613 53.9986 144.896 54.0749V54.0753C143.402 54.2342 142.963 54.3137 142.241 54.4219C141.395 54.5599 140.966 55.1664 140.833 55.6872C140.776 55.9094 140.773 56.1152 140.792 56.2706L140.966 59.9232L140.968 59.9577L140.972 60.0064C140.972 60.0064 141.1 59.9996 140.972 60.0206C142.803 59.7165 143.025 59.6135 145.55 59.2819C146.421 59.1673 148.52 58.9291 148.986 59.2268C149.403 59.4851 149.377 59.6914 149.342 60.3419C147.554 60.5439 145.799 60.5349 144.249 60.8488C142.69 61.1689 141.453 61.8291 140.658 62.9421C139.867 64.0656 139.567 65.7775 139.779 67.5782C139.909 68.6678 140.288 69.7356 140.965 70.6081C141.26 70.9874 142.025 71.4954 142.781 71.4954ZM146.899 64.6578L149.339 64.4251V67.2406C149.353 67.5568 149.119 67.8158 148.813 67.8629L148.734 67.8707C148.727 67.8707 148.72 67.8727 148.713 67.8727H148.723L147.216 68.0139C147.114 68.033 147.008 68.0432 146.899 68.0432C145.962 68.0432 145.204 67.2859 145.204 66.3505C145.204 65.4157 145.963 64.6578 146.899 64.6578Z" fill="white"/>
<path d="M167.921 55.2338C167.905 55.2358 167.027 55.1649 166.451 55.9633C165.287 57.5982 163.224 60.5981 163.223 60.5995C163.15 60.7067 163.027 60.7774 162.888 60.7774C162.666 60.7774 162.482 60.5985 162.482 60.3765C162.482 60.3611 162.482 60.3765 162.482 60.3611V49.0167C162.479 48.6595 162.19 48.3706 161.831 48.3706H161.825H157.647H157.596C157.254 48.3706 156.955 48.6615 156.955 49.0197V70.7996C156.955 70.7996 156.955 71.4954 157.604 71.4954C158.186 71.4954 161.825 71.4954 161.825 71.4954C162.187 71.4954 162.477 71.1991 162.477 70.8465V67.2316L162.478 67.2103C162.478 66.9883 162.657 66.8082 162.879 66.8082C163.018 66.8082 163.141 66.8794 163.213 66.9867C164.136 68.1581 165.384 69.8179 166.194 70.7387C166.196 70.7395 166.795 71.4956 167.619 71.4956H173.154L167.122 63.7024L173.154 55.234H167.921V55.2338Z" fill="white"/>
<path d="M138.745 54.433C138.251 51.105 136.907 48.8249 133.516 48.392C130.178 47.9647 126.86 49.0515 123.867 50.4433C123.818 50.4723 123.742 50.5164 123.698 50.5579C123.553 50.6775 123.457 50.8578 123.457 51.0613V63.0787V65.255V68.6329V69.765V70.8002C123.457 71.1592 123.756 71.4493 124.099 71.4493H128.327C128.69 71.4493 128.978 71.1528 128.978 70.8002L128.98 66.0285C130.603 66.2042 132.295 66.1787 133.659 65.86C136.642 65.1662 138.37 62.936 138.781 59.709C139.005 58.088 139.005 56.159 138.745 54.433ZM132.401 60.2717C131.714 60.6972 130.624 60.6422 129.532 60.6418C129.376 60.6418 128.944 60.6418 128.944 60.6418L128.948 54.2263C129.624 54.086 130.183 53.955 130.904 53.9099C133.085 53.7725 133.358 55.2264 133.449 56.9581C133.522 58.3853 133.353 59.6891 132.401 60.2717Z" fill="white"/>
<path d="M111.165 68.1085L108.618 67.0722L107.486 66.6571C107.497 66.6721 107.506 66.6873 107.517 66.7011C107.545 66.7374 107.575 66.7714 107.604 66.8045L102.619 66.8091V48.9699C102.619 48.9699 102.593 48.356 101.962 48.356C101.329 48.356 97.7588 48.356 97.7588 48.356C97.7588 48.356 97.0868 48.3582 97.0868 49.018V55.5152C97.0884 57.2132 97.0888 58.926 97.0868 60.6042V64.4505H97.0628L96.8606 64.4381C95.5014 64.394 95.092 63.9711 94.97 63.4081C94.9298 63.2296 94.943 62.4165 94.943 62.1346V55.8954C94.943 53.4739 94.5692 51.737 93.2312 50.4848C91.9572 49.287 89.6232 49.0274 87.1944 49.1768C86.4504 49.2191 85.7216 49.2826 85.0048 49.3585V49.3597C83.5116 49.5182 83.07 49.5979 82.35 49.7061C81.5026 49.8442 81.0742 50.45 80.9406 50.9715C80.8834 51.1928 80.882 51.3998 80.8996 51.5549L81.0742 55.2071L81.0756 55.2415L81.0796 55.2906C81.0796 55.2906 81.2086 55.2834 81.0796 55.3046C82.911 55.0005 83.1322 54.8975 85.658 54.566C86.5278 54.4514 88.6274 54.2136 89.0938 54.5105C89.5106 54.7693 89.4848 54.9755 89.4496 55.6254C87.6622 55.8283 85.9066 55.8195 84.357 56.1332C82.7978 56.4532 81.5616 57.1133 80.766 58.2258C79.9746 59.3493 79.6742 61.063 79.8874 62.8628C80.0178 63.9519 80.396 65.0203 81.0736 65.8928C81.4176 66.3369 81.853 66.6262 82.3422 66.9033C83.3834 67.4905 84.5986 67.785 85.7826 67.836C86.1022 67.8505 86.5242 67.824 86.8346 67.7836C87.1866 67.7375 87.5182 67.669 87.8486 67.5848C88.4862 67.4037 89.2912 67.0882 90.0834 66.5352L90.1764 66.6128H90.1768C91.646 67.8306 94.295 68.7424 96.8602 67.8729L97.0864 67.8022V69.4364C97.0884 69.4364 97.0906 69.4364 97.092 69.4364V70.8784C97.1144 71.217 97.3944 71.484 97.7382 71.4856H110.828C111.15 71.4708 111.413 71.2228 111.445 70.905C111.454 70.7065 111.464 70.4895 111.473 70.2602V68.5781C111.577 68.5925 111.682 68.5961 111.787 68.6062L111.165 68.1085ZM89.4478 62.5242C89.4614 62.8408 89.2274 63.0992 88.9216 63.1467L88.8424 63.1537C88.8352 63.1537 88.8274 63.1561 88.8212 63.1561H88.8306L87.3238 63.298C87.2214 63.3168 87.1154 63.3272 87.0068 63.3272C86.0702 63.3272 85.3106 62.5691 85.3106 61.6347C85.3106 60.6994 86.0702 59.9417 87.0068 59.9417L89.4478 59.7093V62.5242V62.5242Z" fill="white"/>
</g>
<defs>
<clipPath id="clip0">
<rect width="200" height="119.797" fill="white"/>
</clipPath>
</defs>
</svg>
