<svg width="90" height="90" viewBox="0 0 90 90" fill="none" xmlns="http://www.w3.org/2000/svg">
<circle cx="45" cy="45" r="45" fill="#E3FFF2"/>
<path fill-rule="evenodd" clip-rule="evenodd" d="M23.9583 21H59.2083V28.9959C61.3894 29.3655 63.4219 30.3431 65.0722 31.8163C66.7224 33.2895 67.9235 35.1986 68.5371 37.324C69.1508 39.4494 69.1522 41.7048 68.5413 43.8309C67.9303 45.9571 66.7317 47.8676 65.0833 49.343V67.7435L62.038 65.7127L57.2499 62.5206L52.4618 65.7127L49.4166 67.7454V60.1667H23.9583V21ZM49.4166 56.25V49.341C47.7682 47.8657 46.5696 45.9551 45.9586 43.829C45.3476 41.7028 45.349 39.4474 45.9627 37.322C46.5764 35.1966 47.7774 33.2876 49.4277 31.8144C51.0779 30.3411 53.1105 29.3635 55.2916 28.9939V24.9186H27.8749V56.252H49.4166V56.25ZM53.3333 51.6655V60.4232L56.163 58.5373L57.2499 57.8128L58.3368 58.5373L61.1666 60.4212V51.6675C59.9084 52.1105 58.5838 52.3357 57.2499 52.3333C55.9159 52.3351 54.5913 52.1092 53.3333 51.6655ZM57.2499 32.75C55.1724 32.75 53.18 33.5753 51.7109 35.0443C50.2419 36.5134 49.4166 38.5058 49.4166 40.5833C49.4166 42.6609 50.2419 44.6533 51.7109 46.1223C53.18 47.5914 55.1724 48.4167 57.2499 48.4167C59.3274 48.4167 61.3199 47.5914 62.7889 46.1223C64.258 44.6533 65.0833 42.6609 65.0833 40.5833C65.0833 38.5058 64.258 36.5134 62.7889 35.0443C61.3199 33.5753 59.3274 32.75 57.2499 32.75ZM43.5416 38.625H31.7916V34.7083H43.5416V38.625ZM31.7916 44.5H41.5833V40.5833H31.7916V44.5ZM35.7083 50.375H31.7916V46.4583H35.7083V50.375ZM31.7916 32.75H35.7083V28.8333H31.7916V32.75Z" fill="#35DF91"/>
</svg>
