<svg width="90" height="90" viewBox="0 0 90 90" fill="none" xmlns="http://www.w3.org/2000/svg">
<circle cx="45" cy="45" r="45" fill="#E3FFF2"/>
<path d="M63.1438 57.0309C65.9454 54.534 67.5317 51.2059 67.5317 47.7523C67.5317 44.0819 65.8135 40.6492 62.6934 38.0861C59.6567 35.5923 55.6373 34.2188 51.375 34.2188C47.1127 34.2188 43.0933 35.5923 40.0571 38.0862C36.937 40.6492 35.2188 44.0819 35.2188 47.7523C35.2188 51.4227 36.937 54.8553 40.0571 57.4185C43.0933 59.9124 47.1127 61.2859 51.375 61.2859C51.9429 61.2859 52.5144 61.2608 53.081 61.211L54.0491 62.0501C57.3843 64.9401 61.6494 66.5311 66.0625 66.5312H67.5312V63.4049L67.1011 62.9749C65.4041 61.2729 64.0594 59.2531 63.1438 57.0309V57.0309ZM55.973 59.8301L54.0305 58.1464L53.3828 58.2258C52.7166 58.3073 52.0461 58.3482 51.375 58.3482C44.0863 58.3482 38.1562 53.5949 38.1562 47.7523C38.1562 41.9097 44.0863 37.1562 51.375 37.1562C58.6637 37.1562 64.5937 41.9096 64.5937 47.7523C64.5937 50.6631 63.1415 53.3807 60.5046 55.4043L59.6587 56.0534L60.049 57.1581C60.8489 59.4145 62.0246 61.5193 63.5264 63.3835C60.7296 62.9167 58.1159 61.6871 55.973 59.8301V59.8301Z" fill="#35DF91"/>
<path d="M27.5248 50.1433C28.8997 48.403 29.9791 46.4485 30.7201 44.358L31.1074 43.2587L30.2623 42.6101C27.7757 40.702 26.4062 38.141 26.4062 35.399C26.4062 29.889 32.0067 25.4062 38.8906 25.4062C43.9549 25.4062 48.3243 27.8324 50.2805 31.3088C50.6437 31.2912 51.0085 31.2812 51.375 31.2812C52.111 31.2812 52.8403 31.317 53.5629 31.3884C52.8069 29.4299 51.4941 27.6421 49.6891 26.1595C46.7918 23.7795 42.9572 22.4688 38.8906 22.4688C34.824 22.4688 30.9895 23.7795 28.092 26.1595C25.1106 28.6086 23.4688 31.8899 23.4688 35.399C23.4688 38.6853 24.9698 41.8518 27.6226 44.2338C26.7569 46.3171 25.4919 48.2109 23.899 49.8085L23.4688 50.2387V53.3125H24.9375C27.6535 53.3122 30.3321 52.6797 32.7614 51.4651C32.4951 50.4554 32.339 49.4199 32.2959 48.3766C30.8215 49.2407 29.2065 49.8388 27.5248 50.1433V50.1433Z" fill="#35DF91"/>
</svg>
