<svg width="200" height="48" viewBox="0 0 200 48" fill="none" xmlns="http://www.w3.org/2000/svg">
<g clip-path="url(#clip0)">
<path d="M14.7395 23.6843C14.7395 18.7952 18.6891 14.8365 23.563 14.8365C28.437 14.8365 32.3866 18.7952 32.3866 23.6843C32.3866 28.5734 28.437 32.532 23.563 32.532C18.6891 32.532 14.7395 28.5734 14.7395 23.6843Z" fill="#00AA13"/>
<path d="M23.5294 0.104946C10.5378 0.104946 0 10.6613 0 23.62C0 33.3982 5.88235 41.7215 14.437 45.4433C15.0389 45.6996 15.69 45.8178 16.343 45.7893C16.996 45.7609 17.6345 45.5864 18.2122 45.2787C18.7899 44.9709 19.2923 44.5376 19.6829 44.0101C20.0736 43.4826 20.3426 42.8742 20.4706 42.229C20.6727 41.2249 20.5217 40.1813 20.0434 39.277C19.565 38.3727 18.7892 37.664 17.8487 37.2722V37.2705C12.5546 35.0375 8.82353 29.7931 8.82353 23.669C8.82353 15.5149 15.4118 8.91716 23.5294 8.91716C31.6471 8.91716 38.2353 15.5149 38.2353 23.669C38.2353 29.7931 34.5042 35.0375 29.2101 37.2705V37.2739C28.2615 37.6594 27.4766 38.3665 26.9911 39.2729C26.5056 40.1793 26.3501 41.2279 26.5515 42.2375C26.7529 43.2471 27.2985 44.154 28.094 44.8015C28.8894 45.449 29.8847 45.7963 30.9076 45.7833C31.49 45.7787 32.0661 45.6622 32.605 45.4399C41.1597 41.8027 47.0588 33.4625 47.0588 23.6166C47.0588 10.5903 36.521 0.101562 23.5294 0.101562" fill="#00AA13"/>
<path d="M115.294 21.1466C115.294 16.8834 112.37 13.703 107.832 13.703C103.277 13.703 100.353 16.8834 100.353 21.1466C100.353 25.4097 103.277 28.5902 107.832 28.5902C112.387 28.5902 115.294 25.4097 115.294 21.1466V21.1466ZM93.1094 21.1466C93.1094 13.3139 99.2943 7.25749 107.899 7.25749C116.555 7.25749 122.689 13.3139 122.689 21.1466C122.689 28.9793 116.555 35.0357 107.899 35.0357C99.2943 35.0357 93.1094 28.9793 93.1094 21.1466V21.1466ZM120.168 40.7706H124.135C126.269 40.7706 127.009 39.9755 127.009 38.0977V7.30824H134.336V38.0977C134.336 44.594 131.714 47.3684 124.74 47.3684H120.185V40.6691L120.168 40.7706ZM81.3447 22.6691C81.3447 25.9173 78.0506 28.5056 73.8825 28.5056C69.1598 28.5056 66.2187 25.7143 66.2187 21.062C66.2187 16.765 69.3615 13.8214 74.1851 13.8214C78.017 13.8214 81.3615 16.5113 81.3615 19.5564V22.6522L81.3447 22.6691ZM81.6439 7.32516V10.421H81.543C79.6439 8.42479 76.5178 7.32516 72.7867 7.32516C64.7699 7.32516 58.8372 13.3139 58.8372 21.062C58.8372 29.0977 64.9212 35.0019 73.022 35.0019C76.6523 35.0019 79.6943 33.8515 81.543 31.8045H81.6439V34.4774C81.6439 38.0639 78.5514 40.7199 74.4674 40.7199C70.3498 40.7199 67.9464 39.556 65.8792 37.5564L61.1061 42.1579C64.2993 45.5582 69.1229 47.4868 74.6187 47.4868C82.9884 47.4868 88.7027 41.8534 88.7027 34.3759V7.30824H81.6271L81.6439 7.32516ZM153.072 13.28C156.972 13.28 159.694 15.3101 160.047 18.3891H145.997C146.393 15.3101 149.123 13.28 153.072 13.28ZM153.829 29.1654C149.442 29.1654 145.997 26.3233 145.896 23.5658H167.241V21.4849C167.241 13.6015 161.795 7.34208 152.988 7.34208C144.669 7.34208 138.736 13.1955 138.736 21.2819C138.736 29.6222 145.005 35.1203 154.198 35.1203C159.846 35.1203 163.879 32.4135 165.997 29.8082L161.039 26.3233C158.837 28.3872 156.837 29.1654 153.896 29.1654H153.829ZM171.543 0.236816H178.619L178.657 18.5075H178.753L190.585 7.37591H200.064L187.795 19.015L200.014 35.2049H191.56L183.173 23.4981H183.077L178.624 27.7274V35.2218H171.548L171.543 0.236816Z" fill="black"/>
</g>
<defs>
<clipPath id="clip0">
<rect width="200" height="47.3684" fill="white"/>
</clipPath>
</defs>
</svg>
