<svg width="150" height="150" viewBox="0 0 150 150" fill="none" xmlns="http://www.w3.org/2000/svg">
<g clip-path="url(#clip0)">
<path fill-rule="evenodd" clip-rule="evenodd" d="M149.894 111.889C149.894 112.739 149.858 114.477 149.823 115.859C149.716 119.192 149.433 123.552 149.043 125.538C148.405 128.516 147.518 131.317 146.348 133.656C144.895 136.422 143.122 138.903 140.995 141.031C138.832 143.158 136.351 144.966 133.621 146.384C131.281 147.554 128.409 148.511 125.431 149.114C123.481 149.539 119.156 149.752 115.824 149.894C114.476 149.965 112.668 149.965 111.853 149.965H37.9697C37.1543 149.965 35.3817 149.929 33.9991 149.858C30.6665 149.752 26.3058 149.468 24.3205 149.043C21.3425 148.44 18.5772 147.518 16.2373 146.348C13.472 144.93 11.0258 143.122 8.86315 140.995C6.70054 138.868 4.96337 136.422 3.54526 133.656C2.33987 131.317 1.4181 128.445 0.81541 125.502C0.460884 123.552 0.14181 119.227 0.0709052 115.859C0.0354526 114.477 0 112.704 0 111.889L0.0354526 38.0407C0.0354526 37.2253 0.0354526 35.4527 0.0709052 34.07C0.177263 30.702 0.460884 26.3414 0.850863 24.3915C1.45356 21.378 2.37532 18.6127 3.54526 16.2728C4.96337 13.543 6.8069 11.0258 8.93406 8.89868C11.0612 6.77152 13.5429 4.96344 16.2727 3.58078C18.6126 2.3754 21.4488 1.48908 24.4978 0.886385C26.4122 0.496406 30.7374 0.248238 34.1054 0.106428C35.3817 0.0355225 37.1898 0.0355225 38.0052 0.0355225H111.853C112.704 0.0355225 114.476 0.0709751 115.824 0.106428C119.227 0.212786 123.552 0.496406 125.538 0.921838C128.48 1.48908 131.316 2.41085 133.621 3.61624C136.422 5.03434 138.903 6.84243 141.03 8.96958C143.158 11.1322 144.93 13.6139 146.384 16.3792C147.589 18.7191 148.511 21.5198 149.114 24.4978C149.504 26.4832 149.787 30.7729 149.894 34.1055C149.965 35.5236 150 37.2608 150 38.0762L149.894 111.889Z" fill="#289245"/>
<path d="M110.364 63.8856V49.0664H113.413V61.7939C112.597 62.2193 111.463 62.9993 110.364 63.8856V63.8856ZM105.081 68.3526C106.039 67.2181 107.031 66.0837 108.13 65.1619V49.0664H105.081V68.3526ZM69.9124 80.0874C69.9124 84.0936 71.5078 87.8161 74.344 90.6878C77.2156 93.524 80.9382 95.1193 84.9089 95.1193C86.6106 95.1193 88.3478 94.7294 89.5177 94.1621V91.1487C88.0641 91.7513 86.3624 92.0704 84.9089 92.0704C78.3856 92.0704 72.9259 86.6107 72.9259 80.1229V77.393C72.9259 70.9052 78.3856 65.4455 84.9089 65.4455C88.0996 65.4455 91.184 66.6864 93.382 68.9199C95.651 71.1534 96.8564 74.1668 96.8564 77.393V95.1193H99.9408V76.8258C99.7281 72.9615 98.0618 69.3098 95.261 66.6154C92.3894 63.8856 88.7732 62.432 84.9089 62.432C80.9382 62.432 77.1802 63.992 74.344 66.8282C71.5078 69.6998 69.9124 73.4223 69.9124 77.393V80.0874ZM115.398 72.8197C116.745 71.437 118.553 70.657 120.291 70.657C124.084 70.657 126.956 73.5642 126.956 77.3221V80.052C126.956 83.81 124.049 86.7171 120.291 86.7171C118.482 86.7171 116.71 85.7244 115.363 83.9163C114.157 82.321 113.342 80.1583 113.236 78.2439L110.789 81.2574C111.25 83.5263 112.456 85.689 114.157 87.2843C115.93 88.8797 118.093 89.766 120.291 89.766C125.644 89.766 130.04 85.4053 130.04 80.0165V77.2867C130.04 74.7341 129.012 72.3233 127.133 70.4443C125.289 68.6008 122.843 67.5727 120.291 67.5727C118.695 67.5727 116.143 68.1399 113.094 70.8698L113.058 70.9052C112.278 71.7206 110.364 73.5996 109.158 74.9468C107.209 77.074 104.372 80.3356 101.962 83.5618V88.277C104.656 84.8026 106.216 82.9236 108.733 80.0165C111.002 77.4285 113.803 74.2023 115.398 72.8197V72.8197ZM43.6066 67.1118V63.4956C40.8767 62.0066 37.8632 61.3685 33.8926 61.3685C29.851 61.3685 25.9866 62.822 23.0441 65.5519C20.1369 68.2463 18.5061 71.827 18.5061 75.585V76.5422C18.5061 84.4127 24.7812 90.7587 32.5099 90.7587C38.8205 90.7587 41.4085 88.7024 42.0467 88.0643V78.9175H31.7654V81.9664H39.2104V86.5398H39.175C38.1823 86.9298 36.197 87.7097 32.4745 87.7097C29.5319 87.7097 26.7666 86.5398 24.7103 84.4836C22.6186 82.3919 21.4487 79.5556 21.4487 76.5422V75.585C21.4487 69.4871 27.1211 64.3819 33.8217 64.3819C38.5014 64.4174 41.2667 65.1973 43.6066 67.1118V67.1118ZM65.7644 70.6925C66.8989 70.6925 67.8916 70.8698 68.6716 71.2243C69.0615 70.3025 69.4161 69.5226 69.9833 68.5653C69.1679 67.9626 67.218 67.6081 65.729 67.6081C60.1984 67.6081 55.9795 71.7915 55.9795 77.3576V95.0839H59.0285V77.3576C59.0639 73.4223 61.7938 70.6925 65.7644 70.6925V70.6925ZM13.1882 75.6204V76.5776C13.1882 81.8601 15.209 86.7171 18.8252 90.4041C22.4059 94.0558 27.2629 96.0411 32.4745 96.0411C36.6579 96.0411 40.3449 95.1193 43.4293 93.2049C46.0173 91.7159 47.1873 90.156 47.2582 90.0142V73.6705H31.7654V76.7194H44.2802V89.0924C42.7912 90.546 39.3523 93.0276 32.5099 93.0276C28.0783 93.0276 23.9304 91.3614 20.9524 88.277C17.9034 85.1926 16.2372 81.0447 16.2372 76.6131V75.6559C16.2372 71.4015 18.1516 67.2181 21.4487 64.0983C24.8167 60.9076 29.2483 59.1704 33.8926 59.1704C38.2178 59.1704 41.2312 59.844 43.6066 61.2976V57.8587C41.0894 56.7951 38.076 56.2987 33.8926 56.2987C22.6895 56.2987 13.1882 65.1619 13.1882 75.6204V75.6204ZM94.6229 95.0839V77.3576C94.6229 71.8979 90.3686 67.6081 84.9089 67.6081C82.3917 67.6081 79.9455 68.6362 78.0665 70.4798C76.223 72.3588 75.1948 74.7695 75.1948 77.3221V80.052C75.1948 85.3344 79.6619 89.8014 84.9089 89.8014C86.3624 89.8014 88.3478 89.4115 89.5177 88.4188V85.2281C88.3123 86.1853 86.6106 86.7171 84.9089 86.7171C81.1863 86.7171 78.2083 83.81 78.2083 80.052V77.3221C78.2083 73.5287 81.1509 70.657 84.9089 70.657C88.6668 70.657 91.6094 73.5642 91.6094 77.3221V95.0484H94.6229V95.0839ZM65.7644 65.4101C67.8207 65.4101 69.5933 65.8355 71.2242 66.7573C71.9687 65.8 72.7841 65.0555 73.3513 64.4528C71.6496 63.1411 68.7425 62.3966 65.7999 62.3966C61.581 62.3966 57.7167 63.8856 55.0223 66.6509C52.2925 69.4162 50.768 73.1742 50.768 77.393V95.1193H53.8524V77.393C53.8169 70.3025 58.7094 65.4101 65.7644 65.4101V65.4101ZM130.855 66.7927C128.019 63.921 124.226 62.3966 120.291 62.3966C117.383 62.3966 114.512 63.4247 112.916 64.4883C109.619 66.6864 106.854 69.0971 101.997 75.4077V79.9456C106.18 74.5214 110.08 70.3025 113.094 67.9272C115.044 66.3673 117.809 65.3746 120.326 65.3746C126.814 65.3746 132.274 70.8343 132.274 77.3221V80.052C132.274 83.2782 131.033 86.2562 128.728 88.4897C126.459 90.7941 123.481 91.9995 120.291 91.9995C114.973 91.9995 110.257 88.3479 109.017 83.3491L106.854 85.9017C108.414 91.1841 114.051 95.0484 120.291 95.0484C124.261 95.0484 128.019 93.4885 130.855 90.6169C133.727 87.7807 135.287 84.0227 135.287 80.0165V77.2867C135.287 73.3869 133.727 69.6644 130.855 66.7927" fill="white"/>
</g>
<defs>
<clipPath id="clip0">
<rect width="150" height="150" fill="white"/>
</clipPath>
</defs>
</svg>
