<svg width="200" height="200" viewBox="0 0 200 200" fill="none" xmlns="http://www.w3.org/2000/svg">
<g clip-path="url(#clip0)">
<path d="M0 0H199.75C199.729 64.3125 199.771 128.604 199.75 192.917C199.687 195.188 199.875 197.458 199.75 199.729C133.166 199.75 66.5833 199.708 0 199.75V0Z" fill="#87D335" stroke="#87D335" stroke-width="0.244792"/>
<path d="M199.75 0H200V200H0V199.75C66.5833 199.708 133.166 199.75 199.75 199.729C199.875 197.458 199.687 195.187 199.75 192.917C199.771 128.604 199.729 64.3125 199.75 0V0Z" fill="#99E452" stroke="#99E452" stroke-width="0.244792"/>
<path d="M122.792 146.75C123.042 146.438 123.417 146.5 123.729 146.625C124.437 147.688 124.937 149.146 124.271 150.333C123.958 149.563 124.042 148.729 123.729 147.958C123.625 147.708 123.646 147.417 123.646 147.146C123.396 147.125 123.146 147.083 122.917 147.063C122.458 147.417 122.062 147.896 121.458 147.979C120.104 148.313 118.667 148.188 117.292 148.188C115.063 148.209 112.833 148.188 110.604 148.209C110.354 148.167 110.167 148.313 110 148.48C109.917 148.542 109.729 148.688 109.646 148.771C109.625 148.688 109.563 148.542 109.542 148.458C109.771 148.188 110.021 147.833 110.417 147.833C113.604 147.813 116.812 147.833 120 147.813C121.042 147.833 122.02 147.438 122.792 146.75Z" fill="#EEFFD4" stroke="#EEFFD4" stroke-width="0.244792"/>
<path d="M123.729 146.625C124.688 146.521 124.75 147.667 124.896 148.333C125.229 149.896 124.438 151.437 123.208 152.375C122.542 152.521 121.937 152.875 121.25 152.875C120.334 152.979 119.458 152.541 118.542 152.666C117.417 152.562 116.333 152.896 115.208 152.896C114.813 153.167 114.75 153.708 114.75 154.167C114.771 154.854 114.771 155.562 114.833 156.25C114.979 156.771 115.646 156.458 116.021 156.562C117.583 156.833 119.187 156.583 120.771 156.771C121.271 157.125 121.771 157.646 121.687 158.312C121.625 159.062 121.771 159.792 121.771 160.521C121.417 161.104 121.167 161.917 120.396 162.042C118.916 161.604 117.333 161.854 115.833 161.937C115.375 161.937 114.729 162.125 114.812 162.688C114.771 164.167 114.604 165.646 114.958 167.083C114.979 167.917 114.687 168.729 114.458 169.521C112.917 170.104 111.229 169.396 109.687 169.917C109.396 169.646 108.958 169.521 108.771 169.146C109.75 169.542 110.812 169.563 111.875 169.521C112.604 169.458 113.521 169.708 114.083 169.063C114.625 168.479 114.458 167.604 114.479 166.854C114.5 165.083 114.396 163.292 114.542 161.521C115.937 161.604 117.354 161.562 118.75 161.583C119.25 161.583 119.771 161.625 120.229 161.458C121.146 161.229 121.375 160.187 121.396 159.375C121.375 158.708 121.5 157.896 120.979 157.375C120.458 156.791 119.646 156.958 118.959 156.937C117.459 156.896 115.958 157.021 114.479 156.812C114.479 155.396 114.479 153.979 114.458 152.562C116.937 152.354 119.417 152.604 121.896 152.416C122.854 152.208 123.75 151.562 124.083 150.625C124.125 150.562 124.229 150.416 124.271 150.333C124.937 149.146 124.438 147.687 123.729 146.625V146.625Z" fill="#9AC565" stroke="#9AC565" stroke-width="0.244792"/>
<path d="M121.458 147.979C122.062 147.896 122.458 147.417 122.917 147.063C123.146 147.084 123.396 147.125 123.646 147.146C123.646 147.417 123.625 147.708 123.729 147.958C124.042 148.729 123.958 149.563 124.271 150.333C124.229 150.417 124.125 150.563 124.083 150.625C123.563 150.708 123.396 151.229 123.042 151.521C121.854 151.687 120.792 152.354 119.583 152.25C117.687 152.417 115.792 151.917 113.896 152.229C113.979 153.687 114.125 155.187 113.979 156.646C113.812 156.687 113.479 156.771 113.312 156.791C114.208 157.812 115.729 157.625 116.916 157.354C118.25 157.208 119.708 157.104 120.875 157.896C121.021 158.5 121 159.146 121.062 159.771C120.792 160.354 120.167 160.771 120.229 161.458C119.771 161.625 119.25 161.583 118.75 161.583C117.354 161.562 115.937 161.604 114.541 161.521C113.833 161.396 113.875 162.25 113.895 162.708C114.021 164.5 113.895 166.312 113.937 168.104C113.708 168.458 113.395 168.75 113.166 169.104C112.25 169.146 111.333 169.208 110.416 169.125C109.937 168.938 109.396 168.896 108.895 168.813C108.479 168.333 108.895 167.708 109.458 167.708C109.604 168 109.75 168.292 109.916 168.583C110.062 168.041 109.895 167.521 109.604 167.062C109.687 166.646 109.77 166.25 109.77 165.833C109.77 161.667 109.75 157.5 109.77 153.333C109.77 152.146 109.854 150.958 109.687 149.771C109.562 149.437 109.812 149.208 109.958 148.937C109.979 148.833 110 148.604 110 148.479C110.166 148.312 110.354 148.167 110.604 148.208C112.833 148.187 115.062 148.208 117.292 148.187C118.667 148.188 120.104 148.313 121.458 147.979V147.979Z" fill="white" stroke="white" stroke-width="0.244792"/>
<path d="M17.9999 147.375C18.8124 147.437 19.6251 147.479 20.4168 147.333C21.2918 147.083 21.8126 147.958 22.3334 148.5C22.8126 148.979 22.5418 149.646 22.5207 150.208C22.4376 151.812 22.6041 153.417 22.4376 155C22.4376 155.271 22.3124 155.792 22.7084 155.812C24.2918 156.166 25.8959 155.917 27.5001 155.979C28.1459 155.979 28.8959 156.021 29.4582 155.625C29.1874 155.458 28.8959 155.396 28.6041 155.312C28.8749 155.167 29.1874 155.021 29.3957 154.792C29.5624 154.437 29.3541 154.083 29.0624 153.854C29.1666 153.75 29.2707 153.646 29.3539 153.542C29.3955 152.312 29.2707 151.062 29.4372 149.854C29.5622 149.833 29.7914 149.812 29.9164 149.792C29.958 151.958 29.8539 154.146 29.958 156.312C29.8955 156.333 29.7497 156.396 29.6872 156.438C27.1872 156.354 24.6455 156.333 22.1455 156.458L22.0205 156.375C21.9788 154.042 22.0205 151.709 21.9995 149.354C22.0205 148.896 21.8745 148.375 21.437 148.146C20.5624 147.646 19.4999 147.896 18.5416 147.833C17.6457 147.729 16.7291 148.437 16.7916 149.375C16.7707 154.854 16.7916 160.354 16.7707 165.833C16.8124 166.854 15.9582 167.521 15.5207 168.354C15.8122 169.125 16.7291 169.521 17.4999 169.521C18.5624 169.521 19.6041 169.542 20.6457 169.521C21.3749 169.542 22.0416 168.854 21.9999 168.146C22.0209 165.75 21.9791 163.375 22.0209 160.979C24.6459 161 27.3124 160.917 29.9376 161.042C29.8959 163.333 29.9376 165.625 29.9166 167.917C29.8957 168.667 30.4791 169.479 31.2707 169.521C32.1666 169.542 33.0626 169.542 33.9582 169.5C34.7499 169.479 35.2499 168.646 35.1666 167.917C35.1874 162.146 35.1666 156.396 35.1666 150.625C35.1666 150.021 35.2291 149.417 35.1041 148.812C34.9166 148.167 34.1874 147.771 33.5416 147.833C32.7914 147.854 32.0207 147.812 31.2499 147.854C30.6457 147.875 30.2499 148.396 29.9582 148.875C29.4999 148.458 29.9582 147.896 30.3957 147.729C31.3124 147.187 32.3541 147.562 33.3334 147.375C34.3751 147.146 35.3543 148 35.646 148.938C35.5628 154.563 35.6043 160.188 35.6043 165.813C35.6249 166.667 35.7707 167.5 35.6874 168.333C35.5207 168.979 35.0624 169.542 34.5207 169.917C33.6457 170.062 32.7499 170.021 31.8749 170.042C31.1666 170.063 30.5624 169.667 29.9374 169.438C29.6457 168.75 29.3539 168.083 29.0414 167.417C28.7916 166.979 29.3955 166.667 29.3539 166.25C29.3749 165.479 29.3539 164.729 29.3539 163.958C29.4166 163.646 29.2707 163.375 29.0205 163.208C29.208 163.021 29.3747 162.833 29.5622 162.646C29.3539 162.292 28.9582 162.167 28.6247 162C28.708 161.833 28.8122 161.646 28.9164 161.479C28.0414 161.333 27.1455 161.479 26.2705 161.438C25.0416 161.375 23.833 161.417 22.6247 161.583C22.4164 161.833 22.4163 162.167 22.4374 162.479C22.5416 164.167 22.4374 165.833 22.5205 167.5C22.5416 168.208 22.3538 168.896 22.0207 169.5C21.7082 169.938 21.1041 169.958 20.6455 170C19.2497 170.063 17.8747 169.854 16.4999 169.875C15.8538 169.667 15.2499 169.146 15.083 168.479C15.1457 167.667 15.8955 167.167 15.9997 166.375C16.1455 166.354 16.2705 166.354 16.3955 166.333C16.3955 160.625 16.3328 154.896 16.437 149.167C16.2499 148.187 17.2291 147.667 17.9999 147.375Z" fill="#90CC55" stroke="#90CC55" stroke-width="0.244792"/>
<path d="M168.75 147.542C169.646 147.604 170.542 147.333 171.438 147.333C172.104 147.646 172.875 148.125 172.875 148.938C172.979 150.541 172.979 152.146 172.896 153.75C172.854 154.083 173.125 154.271 173.334 154.458C173.521 154.25 173.688 154.042 173.854 153.833C174.75 153.688 175.563 153.167 176.479 153.25C177.375 153.291 178.271 153.291 179.167 153.333C179.229 153.416 179.354 153.583 179.417 153.646C177.792 153.687 176.063 153.291 174.563 154.041C174.521 154.062 174.458 154.104 174.438 154.125C173.917 154.437 173.479 154.833 173.104 155.312C172.813 155.25 172.688 155.083 172.688 154.812C172.604 153.145 172.688 151.458 172.667 149.771C172.667 149.458 172.583 149.166 172.479 148.875L172.458 148.812C172.396 148.416 172.104 148.041 171.688 147.958C170.792 147.75 169.854 147.854 168.958 147.854C168.208 147.833 167.333 148.312 167.396 149.166C167.375 154.791 167.417 160.416 167.375 166.041C167.479 166.958 166.5 167.479 166.333 168.333C166.312 168.875 166.917 169.125 167.271 169.416C166.646 169.625 166.125 169.145 166 168.562C165.666 167.583 167 167.166 167 166.249C167.062 160.291 166.937 154.312 167.062 148.333C167.479 147.875 168.167 147.708 168.75 147.542Z" fill="#91C655" stroke="#91C655" stroke-width="0.244792"/>
<path d="M16.7915 149.375C16.729 148.437 17.6459 147.729 18.5415 147.833C19.4999 147.896 20.5624 147.646 21.4372 148.146C21.8749 148.375 22.0207 148.896 21.9997 149.354C22.0207 151.709 21.9788 154.042 22.0207 156.375C21.7913 156.271 21.6249 156.084 21.6249 155.833C21.4791 154.917 21.6666 154.021 21.6249 153.104C21.5832 152 21.6457 150.917 21.5832 149.812C21.5415 149.187 21.1457 148.417 20.4374 148.375C19.4999 148.333 18.5207 148.062 17.6459 148.458C17.5001 148.937 17.2501 149.437 17.3543 149.937C17.5418 151.146 17.4168 152.354 17.4584 153.542C17.4584 157.875 17.4793 162.208 17.4376 166.542C17.3334 166.604 17.104 166.708 16.9999 166.75C16.8957 167.292 16.5624 167.729 16.229 168.146C16.0834 168.666 16.7084 168.958 17.104 169.083C18.5624 169.146 20.2082 169.521 21.479 168.562C21.729 167.979 21.6249 167.312 21.6249 166.687C21.5207 165.146 21.6874 163.625 21.604 162.083C21.5207 161.396 21.979 160.854 22.2915 160.291C22.7707 160.396 23.2707 160.5 23.7499 160.479C25.2913 160.437 26.8124 160.5 28.3332 160.354C28.9372 160.291 29.5207 160.562 30.0624 160.791C30.2707 161.021 30.2291 161.354 30.2707 161.646C30.2916 163.521 30.2915 165.416 30.2499 167.291C30.1457 167.854 30.7497 168.104 31.0622 168.458C30.958 168.5 30.7707 168.625 30.6665 168.666C30.958 168.854 31.2499 169.083 31.604 169.104C32.4999 169.167 33.4374 169.167 34.3124 168.875C34.7499 168.562 34.5416 167.958 34.6457 167.5C34.8332 166.041 34.7499 164.583 34.7916 163.125C34.7499 158.687 34.8332 154.229 34.7499 149.791C34.7916 149.187 34.4582 148.396 33.7499 148.396C32.8124 148.354 31.7082 147.937 30.8749 148.583C30.6038 149.166 30.2288 149.75 30.2499 150.437C30.2913 152.021 30.2707 153.625 30.2913 155.208C30.2705 155.604 30.3955 156.104 29.958 156.312C29.8538 154.146 29.958 151.958 29.9163 149.791C29.9163 149.479 29.8955 149.166 29.958 148.875C30.2497 148.395 30.6455 147.875 31.2497 147.854C32.0205 147.812 32.7911 147.854 33.5413 147.833C34.1872 147.77 34.9163 148.166 35.1038 148.812C35.2288 149.416 35.1663 150.02 35.1663 150.625C35.1663 156.395 35.1872 162.145 35.1663 167.916C35.2497 168.645 34.7497 169.479 33.958 169.5C33.0622 169.541 32.1661 169.541 31.2705 169.521C30.4788 169.479 29.8955 168.666 29.9163 167.916C29.9374 165.625 29.8955 163.333 29.9374 161.041C27.3122 160.916 24.6457 161 22.0207 160.979C21.979 163.375 22.0207 165.75 21.9997 168.145C22.0413 168.854 21.3747 169.541 20.6455 169.521C19.6038 169.541 18.5622 169.521 17.4997 169.521C16.7288 169.521 15.812 169.125 15.5205 168.354C15.958 167.52 16.8122 166.854 16.7705 165.833C16.7915 160.354 16.7707 154.854 16.7915 149.375Z" fill="#202C10" stroke="#202C10" stroke-width="0.244792"/>
<path d="M167.396 149.167C167.333 148.312 168.208 147.833 168.958 147.854C169.854 147.854 170.792 147.75 171.688 147.958C172.104 148.041 172.396 148.417 172.458 148.812C171.667 148.313 170.688 148.292 169.771 148.187C169.188 148.125 168.604 148.292 168.042 148.437C168.063 148.896 168 149.375 167.771 149.771C167.938 152.416 167.792 155.062 167.833 157.708C167.833 160.75 167.854 163.812 167.833 166.854C167.458 167.479 166.896 168.021 166.771 168.791C168.229 169.666 169.896 168.979 171.458 169.021C171.688 168.791 171.917 168.583 172.083 168.313C172.229 166.583 172.417 164.833 172.167 163.104C172.042 162.292 172.146 161.396 172.625 160.708C173.229 159.896 173.687 158.958 174.542 158.375C174.667 158.438 174.937 158.562 175.062 158.604C174.437 159.25 173.542 159.708 173.25 160.625C173.083 161.125 172.604 161.521 172.625 162.083C172.604 164.021 172.625 165.979 172.625 167.917C172.708 168.583 172.25 169.208 171.667 169.479C170.25 169.583 168.812 169.542 167.375 169.479L167.271 169.417C166.916 169.125 166.312 168.875 166.333 168.333C166.5 167.479 167.479 166.958 167.375 166.042C167.417 160.417 167.375 154.792 167.396 149.167Z" fill="#E5FFCB" stroke="#E5FFCB" stroke-width="0.244792"/>
<path d="M17.646 148.458C18.521 148.063 19.5002 148.333 20.4377 148.375C21.146 148.417 21.5419 149.187 21.5835 149.812C21.646 150.917 21.5835 152 21.6252 153.104C21.6669 154.021 21.4794 154.916 21.6252 155.833C21.6252 156.083 21.7919 156.271 22.021 156.375L22.146 156.458C22.3752 156.646 22.6252 156.729 22.9169 156.729C24.5835 156.729 26.2502 156.708 27.9169 156.729C28.5208 156.708 29.1458 156.75 29.6877 156.438C29.7502 156.396 29.896 156.334 29.9585 156.312C30.396 156.104 30.271 155.604 30.2919 155.208C30.271 153.625 30.2919 152.021 30.2504 150.437C30.2294 149.75 30.6044 149.167 30.8754 148.584C31.7087 147.938 32.8129 148.354 33.7504 148.396C34.4585 148.396 34.7921 149.188 34.7504 149.792C34.8337 154.229 34.7504 158.688 34.7921 163.125C34.7504 164.584 34.8337 166.042 34.6462 167.5C34.5421 167.958 34.7504 168.563 34.3129 168.875C33.4379 169.167 32.5004 169.167 31.6046 169.105C31.2504 169.084 30.9585 168.855 30.6671 168.667C30.7712 168.625 30.9585 168.5 31.0627 168.458C30.7502 168.105 30.1462 167.855 30.2504 167.292C30.2919 165.417 30.2919 163.521 30.2712 161.646C30.2296 161.354 30.2712 161.021 30.0629 160.792C29.5212 160.562 28.9379 160.292 28.3337 160.354C26.8129 160.5 25.2919 160.437 23.7504 160.479C23.2712 160.5 22.7712 160.396 22.2921 160.292C21.9796 160.854 21.5212 161.396 21.6046 162.084C21.6877 163.625 21.5212 165.146 21.6254 166.688C21.6254 167.313 21.7296 167.979 21.4796 168.563C20.2087 169.521 18.5629 169.146 17.1046 169.083C16.709 168.958 16.084 168.667 16.2296 168.146C16.5631 167.729 16.8962 167.292 17.0004 166.75C17.1046 166.709 17.334 166.605 17.4381 166.542C17.4794 162.208 17.4585 157.875 17.4585 153.542C17.4169 152.354 17.5419 151.146 17.3544 149.938C17.2502 149.438 17.5002 148.938 17.646 148.458Z" fill="#2D262A" stroke="#2D262A" stroke-width="0.244792"/>
<path d="M168.042 148.437C168.604 148.291 169.188 148.125 169.771 148.187C170.688 148.291 171.667 148.313 172.459 148.812L172.479 148.875C172.375 150.292 172.459 151.708 172.438 153.125C172.459 154.021 172.334 154.937 172.667 155.792C172.813 155.625 172.959 155.458 173.105 155.312C173.48 154.833 173.917 154.437 174.438 154.125C174.459 154.104 174.521 154.062 174.563 154.042C176.063 153.292 177.792 153.688 179.417 153.646C179.521 153.667 179.751 153.667 179.875 153.667C179.938 153.75 180.042 153.917 180.105 154.021C180.563 154.167 181.084 154.459 181.209 154.958C181.334 155.375 181.376 155.854 181.709 156.188C182.063 156.521 182.021 157.063 182.147 157.5C182.251 158.083 182.646 158.583 182.584 159.188C182.563 161.875 182.584 164.584 182.563 167.292C182.584 167.625 182.438 167.917 182.313 168.209C181.48 168.104 181.501 169.479 180.626 169.25C179.917 168.875 179.126 168.834 178.355 168.729C178.063 168 178.209 167.208 178.188 166.459C178.147 164.5 178.167 162.563 178.167 160.604C178.23 160.25 177.959 160 177.75 159.75C177.397 159.271 177.042 158.729 176.438 158.521C175.98 158.292 175.522 158.604 175.063 158.604C174.938 158.562 174.667 158.437 174.542 158.375C173.688 158.958 173.23 159.896 172.625 160.708C172.146 161.396 172.042 162.292 172.167 163.104C172.417 164.833 172.23 166.583 172.084 168.313C171.917 168.583 171.688 168.792 171.459 169.021C169.896 168.979 168.23 169.667 166.771 168.791C166.896 168.021 167.459 167.479 167.834 166.854C167.855 163.812 167.834 160.75 167.834 157.708C167.792 155.062 167.938 152.416 167.771 149.77C168 149.375 168.063 148.896 168.042 148.437V148.437Z" fill="#FEFEFC" stroke="#FEFEFC" stroke-width="0.244792"/>
<path d="M109.5 148.354L109.542 148.458C109.562 148.542 109.625 148.688 109.646 148.771C109.729 148.688 109.917 148.542 110 148.479C110 148.604 109.979 148.834 109.958 148.938C109.812 149.209 109.562 149.438 109.687 149.771C109.854 150.958 109.771 152.146 109.771 153.334C109.75 157.5 109.771 161.667 109.771 165.834C109.771 166.25 109.687 166.646 109.604 167.063C109.896 167.521 110.062 168.042 109.916 168.584C109.75 168.292 109.604 168 109.458 167.709C108.896 167.709 108.479 168.334 108.896 168.813C109.396 168.896 109.937 168.938 110.417 169.125C111.333 169.209 112.25 169.146 113.166 169.104C113.396 168.75 113.708 168.458 113.937 168.104C113.896 166.313 114.021 164.5 113.896 162.709C113.875 162.25 113.833 161.396 114.542 161.521C114.396 163.292 114.5 165.084 114.479 166.855C114.458 167.605 114.625 168.48 114.083 169.063C113.521 169.709 112.604 169.459 111.875 169.521C110.812 169.563 109.75 169.542 108.771 169.146C108.208 168.959 107.917 168.188 108.437 167.792C109.104 167.209 109.312 166.271 109.25 165.417C109.25 160.063 109.271 154.709 109.25 149.355C109.229 149 109.354 148.667 109.5 148.354V148.354Z" fill="#F2FFE3" stroke="#F2FFE3" stroke-width="0.244792"/>
<path d="M172.479 148.875C172.583 149.167 172.667 149.458 172.667 149.771C172.688 151.458 172.604 153.146 172.688 154.812C172.688 155.083 172.813 155.25 173.104 155.312C172.958 155.458 172.813 155.625 172.667 155.792C172.333 154.937 172.458 154.021 172.437 153.125C172.458 151.708 172.375 150.292 172.479 148.875Z" fill="#B8E093" stroke="#B8E093" stroke-width="0.244792"/>
<path d="M123.042 151.521C123.396 151.229 123.563 150.708 124.083 150.625C123.75 151.562 122.854 152.208 121.896 152.417C119.417 152.604 116.938 152.354 114.458 152.562C114.479 153.979 114.479 155.396 114.479 156.812C115.959 157.021 117.459 156.895 118.959 156.937C119.646 156.958 120.458 156.791 120.979 157.375C121.5 157.896 121.375 158.708 121.396 159.375C121.375 160.188 121.146 161.229 120.229 161.458C120.167 160.771 120.792 160.354 121.063 159.771C121 159.146 121.021 158.5 120.875 157.896C119.708 157.104 118.25 157.208 116.917 157.354C115.729 157.625 114.208 157.812 113.312 156.791C113.479 156.771 113.812 156.687 113.979 156.646C114.125 155.188 113.979 153.688 113.896 152.229C115.792 151.917 117.688 152.417 119.584 152.25C120.792 152.354 121.854 151.687 123.042 151.521V151.521Z" fill="#F5FFD5" stroke="#F5FFD5" stroke-width="0.244792"/>
<path d="M39.2291 153.187C39.7499 153.271 40.1041 153.708 40.6249 153.771C41.6874 153.938 42.6872 153.313 43.7499 153.333C45.4582 153.333 47.2291 153.146 48.8749 153.646C49.4791 154.187 50.4999 154.125 50.8957 154.917C51.1457 155.354 51.6457 155.583 51.8332 156.042C52.0624 156.583 52.4999 157.083 52.4582 157.708C52.6041 161.104 52.4582 164.5 52.5416 167.896C52.4999 168.604 52.4164 169.479 51.7914 169.916C50.9164 170.02 50.0205 170.041 49.1455 169.979C48.8541 169.979 48.708 169.833 48.708 169.541C49.6664 169.52 50.6455 169.541 51.6039 169.5C52.1455 168.916 52.1455 168.062 52.1661 167.291C52.1661 164.52 52.1453 161.729 52.1661 158.958C52.1872 157.395 51.4786 155.812 50.187 154.875C50.0414 154.77 49.8955 154.687 49.7495 154.583C48.0203 153.375 45.7703 153.604 43.7912 153.708C42.2495 153.937 40.4578 154.729 39.1245 153.521C39.1458 153.437 39.2083 153.271 39.2291 153.187V153.187Z" fill="#98CE5E" stroke="#98CE5E" stroke-width="0.244792"/>
<path d="M55.7914 153.271C56.9789 153.083 58.1873 153.125 59.3539 153.188C59.7706 153.188 60.4583 153.604 60 154.042C59.4792 153.417 58.6248 153.542 57.9167 153.521C57.2083 153.542 56.4792 153.458 55.7917 153.708C55.2083 153.958 55.0833 154.646 55.1042 155.208V171.479C55.1042 172.312 54.6458 173.083 54.0414 173.667C53.6875 173.896 53.9373 174.333 54.2289 174.521C55.4373 175.479 57.0831 175.209 58.5206 175.25C59.3956 175.333 60.3331 174.688 60.3125 173.75C60.3333 172.334 60.3125 170.917 60.3333 169.5C60.5833 169.479 60.75 169.355 60.8752 169.125C62.75 170 64.9375 170.021 66.9167 169.438C68.1458 169 69.2294 168.146 70.0002 167.104C70.1044 167.104 70.271 167.104 70.3752 167.125C70.0835 168.438 68.5833 168.75 67.8127 169.688C66.1669 170.084 64.4583 170.23 62.771 170.125C62.1044 170.146 61.5002 169.813 60.896 169.626C60.4377 170.438 60.646 171.396 60.5835 172.292C60.5419 172.73 60.6669 173.167 60.8127 173.584C60.9585 174.396 60.3752 175.23 59.6254 175.501C58.2296 175.75 56.8129 175.563 55.4171 175.584C54.6669 175.563 54.1671 174.896 53.5837 174.521C53.3337 173.73 54.146 173.042 54.0212 172.209C54.4587 172.271 54.8129 171.875 54.7712 171.438C54.7087 166.855 54.7087 162.292 54.7504 157.709C54.7296 156.646 54.5421 155.563 54.7087 154.5C54.8748 153.979 55.1456 153.271 55.7914 153.271V153.271Z" fill="#93CC5B" stroke="#93CC5B" stroke-width="0.244792"/>
<path d="M60.2917 154.417C61.6875 153.396 63.5 153.062 65.2085 153.229C66.1669 153.312 67.2085 153.312 68.0625 153.833C69.0625 154.333 69.75 155.229 70.7291 155.75C71 156.375 71.1248 157.083 71.4791 157.688C71.9375 158.438 71.8958 159.354 71.9166 160.209C71.8958 161.459 71.9166 162.729 71.6041 163.959C71.4791 164.625 71.6252 165.709 70.7083 165.792C71.6041 163.459 71.8333 160.813 71.2083 158.375C70.9375 157.5 70.5833 156.625 69.9373 155.938C69.8331 155.813 69.7289 155.688 69.6039 155.563C68.3539 154.167 66.4373 153.5 64.5831 153.542C63.2079 153.5 61.6248 153.708 60.7079 154.875C60.5623 154.896 60.3954 154.917 60.2288 154.938C60.25 154.812 60.2708 154.542 60.2917 154.417V154.417Z" fill="#96CB5F" stroke="#96CB5F" stroke-width="0.244792"/>
<path d="M75.0624 153.229C76.083 153.167 77.1041 153.188 78.1041 153.208C78.6874 153.229 79.0208 153.854 79.5624 153.938C80.4791 153.75 81.3124 153.167 82.2918 153.187C83.1666 153.208 84.0416 153.166 84.9168 153.229C86.021 153.562 87.1876 153.854 88.0626 154.646C89.0212 155.604 89.9793 156.729 90.1876 158.125C90.3129 158.333 90.4585 158.541 90.5626 158.75C90.792 160.562 91.0004 162.437 90.396 164.187C90.1876 164.75 90.271 165.437 89.8543 165.896C89.4585 166.333 89.5626 167.021 89.1041 167.437C88.4791 168.021 87.9374 168.75 87.2083 169.25C86.3958 169.562 85.5833 169.875 84.7291 170.104C83.6874 170.166 82.6249 170.166 81.5833 170.083C80.8749 170.041 80.0624 169.479 79.4374 170.062C79.2291 171.27 79.3541 172.52 79.4999 173.729C79.3541 174.354 79.3124 175.187 78.6874 175.521C77.8126 175.687 76.9166 175.562 76.0624 175.583C74.9582 175.562 73.7707 175.708 72.7916 175.125C72.3332 174.75 72.2499 174.083 72.2918 173.541C72.521 173.083 73.1251 172.875 73.146 172.291C73.1876 171.771 73.6668 171.375 73.6251 170.833C73.521 166.812 73.6876 162.771 73.5834 158.75C73.6045 157.479 73.6462 156.187 73.2085 155C73.3543 154.458 73.6462 153.979 73.9376 153.521C74.2291 153.229 74.6874 153.292 75.0624 153.229V153.229Z" fill="#99CC61" stroke="#99CC61" stroke-width="0.244792"/>
<path d="M38.1667 153.375C38.2709 153.375 38.4792 153.354 38.5834 153.354C38.2082 154.104 37.8542 154.958 38.0415 155.813C38.1873 156.958 39.0623 158.021 40.2082 158.25H40.229C41.5832 158.75 42.8123 157.75 44.1457 157.75C45.0623 157.646 46.0623 157.813 46.6667 158.542C47.0834 158.896 46.9375 159.479 47 159.938C46.9375 159.938 46.8127 159.938 46.75 159.916C44.2084 159.771 41.4167 160.042 39.375 161.688C37.1875 163.333 37.2084 167.104 39.375 168.729C40.2292 169.5 41.4167 169.729 42.5209 169.834C43.9584 169.854 45.3125 169.229 46.5625 168.542C46.7917 168.396 47 168.229 47.2292 168.063C47.2707 168.042 47.3542 168.021 47.4165 168C47.4375 168.625 47.7082 169.209 48.2709 169.542L48.3123 169.771C47.729 169.708 47.2917 169.313 46.8957 168.917C46.1457 169.167 45.4584 169.583 44.7292 169.896C43.125 170.25 41.3332 170.333 39.8542 169.521C39.1459 169.313 38.6875 168.708 38.2709 168.146C37.3542 167.063 37.2707 165.521 37.479 164.166C37.479 163.583 37.9373 163.104 37.9998 162.521C38.0209 162.083 38.4582 161.917 38.75 161.687C39.1667 161.396 39.354 160.875 39.8542 160.708C40.8542 160.333 41.8125 159.771 42.8959 159.771C44.0834 159.563 45.2709 159.396 46.4586 159.333C46.125 158.791 45.5627 158.417 45.0211 158.062C44.6254 158.021 44.2088 158.104 43.8336 158.166C43.8336 158.333 43.8546 158.521 43.8752 158.708C42.5421 158.125 41.1252 159.125 39.7711 158.562C37.6667 158 36.8959 155.063 38.1667 153.375Z" fill="#94C95F" stroke="#94C95F" stroke-width="0.244792"/>
<path d="M38.5832 153.354C38.7915 153.333 38.9788 153.375 39.1249 153.521C40.4582 154.729 42.2499 153.938 43.7915 153.708C45.7707 153.604 48.0207 153.375 49.7499 154.583C48.979 155.021 48.229 154.354 47.4999 154.167C45.6457 153.708 43.7082 154.208 41.8749 154.562C40.854 154.771 39.8332 154.5 38.9165 154.062C38.229 154.667 38.4165 155.75 38.7082 156.521C39.0207 157.271 40.0207 157.458 40.2082 158.25C39.0624 158.021 38.1874 156.959 38.0415 155.813C37.854 154.958 38.2082 154.104 38.5832 153.354V153.354Z" fill="#253906" stroke="#253906" stroke-width="0.244792"/>
<path d="M91.3124 153.416C91.7915 153.375 92.2288 153.562 92.6874 153.521C93.3957 153.354 94.1041 153.646 94.8124 153.541C95.3957 153.458 95.9791 153.646 96.4999 153.916C96.8958 154.646 97.4374 155.312 97.6458 156.104C97.8541 156.771 98.0416 157.458 98.3335 158.104C98.6668 158.896 98.6874 159.771 98.8752 160.583C98.8127 160.667 98.6668 160.833 98.6043 160.917C98.0418 159.083 97.521 157.208 96.771 155.437C96.7083 155.125 96.5835 154.833 96.4168 154.583C96.2085 154.312 96.021 153.958 95.6251 154.021C94.3751 154 93.1251 154 91.8751 154C91.0626 153.937 90.9584 155 91.1042 155.562C91.5626 156.833 92.1667 158.041 92.6457 159.312C92.4165 159.229 91.9582 159.291 91.9376 158.958C91.7292 158 91.2292 157.146 90.8126 156.271C90.1455 155.375 90.7915 154.208 91.3124 153.416V153.416Z" fill="#95C555" stroke="#95C555" stroke-width="0.244792"/>
<path d="M102.5 153.938C102.521 153.562 102.937 153.5 103.25 153.479C104.146 153.625 105.062 153.562 105.958 153.646C106.292 153.688 106.583 153.521 106.896 153.396C107.312 154.604 107.271 155.938 106.729 157.104C106.542 158.209 105.833 159.125 105.604 160.208C105.437 160.979 105 161.646 104.854 162.417C104.75 163.042 104.312 163.542 104.208 164.167C104.104 164.958 103.458 165.5 103.271 166.25C103.062 166.833 103.041 167.521 102.625 168.021C102.312 168.521 102.25 169.146 102.208 169.729C101.958 169.854 101.75 170.063 101.458 170.021C103.062 165.542 104.854 161.146 106.499 156.687C106.541 156.604 106.583 156.417 106.604 156.333C106.895 155.583 106.999 154.75 106.645 154.021C105.25 154 103.875 154.063 102.5 153.938V153.938Z" fill="#9FD061" stroke="#9FD061" stroke-width="0.244792"/>
<path d="M55.7916 153.708C56.4791 153.458 57.2083 153.542 57.9166 153.521C58.6247 153.542 59.4791 153.417 59.9999 154.042C60.0831 154.125 60.2291 154.313 60.2914 154.417C60.2706 154.542 60.2499 154.812 60.2289 154.938H60.0831C59.8539 154.625 59.7497 154.125 59.3124 154.063C58.3749 153.875 57.4164 153.917 56.4999 154.021C56.1664 154.063 55.7291 154.229 55.7081 154.604C55.4372 156.667 55.5624 158.771 55.5831 160.854C55.5831 163.396 55.6039 165.958 55.5414 168.521C55.4997 169.438 55.6872 170.333 55.6456 171.25C55.5831 172.334 54.7291 173.167 54.4789 174.167C55.1247 174.709 56.0622 174.709 56.8747 174.813C57.8122 174.792 58.8956 174.938 59.6456 174.292C60.4164 172.688 59.8122 170.855 59.9997 169.167C60.1247 168.834 60.5206 168.688 60.8331 168.605C61.5831 168.896 62.2914 169.375 63.1247 169.084C63.7912 169.584 64.6456 169.5 65.4372 169.417C66.5622 169.292 67.5831 168.709 68.4997 168.084C68.8747 167.834 69.1247 167.438 69.1037 166.98C69.4372 166.876 69.8956 166.855 69.9581 166.438C70.3331 165.209 71.0206 164.042 71.0206 162.73C71.1664 160.938 71.0831 159.084 70.3124 157.417C70.1456 156.938 69.6247 156.48 69.9372 155.938C70.5833 156.625 70.9374 157.5 71.2083 158.375C71.8333 160.813 71.6039 163.458 70.7083 165.792C70.4999 166.23 70.2708 166.688 70.0001 167.105C69.2293 168.146 68.146 169.001 66.9166 169.438C64.9374 170.021 62.7499 170 60.8751 169.125C60.7499 169.084 60.521 168.98 60.3958 168.917C60.3749 169.063 60.3333 169.355 60.3333 169.5C60.3124 170.917 60.3333 172.334 60.3124 173.75C60.3333 174.688 59.3958 175.334 58.5206 175.25C57.0833 175.209 55.4372 175.48 54.2289 174.521C53.9372 174.334 53.6872 173.896 54.0414 173.667C54.6456 173.083 55.1041 172.313 55.1041 171.479V155.208C55.0833 154.646 55.2083 153.958 55.7916 153.708V153.708Z" fill="#193202" stroke="#193202" stroke-width="0.244792"/>
<path d="M60.7083 154.875C61.6249 153.708 63.2083 153.5 64.5835 153.542C66.4374 153.5 68.3543 154.167 69.6043 155.563C69.5835 155.688 69.5418 155.917 69.521 156.021C68.8128 155.667 68.4168 154.875 67.646 154.646C66.5628 154.104 65.3753 153.708 64.146 153.875C62.9166 153.875 61.9374 154.854 60.7083 154.875Z" fill="#173100" stroke="#173100" stroke-width="0.244792"/>
<path d="M73.8541 155C73.7499 154.25 74.458 153.542 75.2082 153.542C76.1041 153.521 77.0205 153.479 77.9374 153.563C78.5832 153.584 79.1249 154.313 78.9999 154.958C78.5207 154.771 78.1876 154.313 77.7084 154.167C76.6876 154.104 75.5834 153.833 74.6666 154.458C73.9999 154.688 74.2082 155.5 74.1457 156.042C74.0832 161.25 74.1668 166.458 74.1041 171.646C73.9582 172.375 73.9166 173.292 73.1874 173.667C73.2916 174 73.3957 174.438 73.7914 174.542C74.9372 174.833 76.1247 174.792 77.3122 174.813C77.8539 174.834 78.4789 174.583 78.583 173.979C78.9372 172.479 78.7705 170.896 78.583 169.375C78.5416 169.083 78.6664 168.833 78.7705 168.583C78.833 168.625 78.9372 168.708 78.9997 168.75C79.1455 170.333 79.0207 171.938 79.083 173.542C79.208 174.375 78.4997 175.146 77.6872 175.25C76.8749 175.271 76.0416 175.25 75.2082 175.271C74.3122 175.333 73.3957 174.958 72.7082 174.375C72.4999 174.083 72.6455 173.729 72.8955 173.5C73.3747 172.938 73.833 172.25 73.833 171.458C73.8541 165.979 73.8541 160.5 73.8541 155V155Z" fill="#213500" stroke="#213500" stroke-width="0.244792"/>
<path d="M81.2294 153.729C83.6044 153.229 86.3752 153.562 88.146 155.333C89.6668 156.729 90.3127 158.833 90.2918 160.833C90.3129 163.125 89.9585 165.583 88.4793 167.437C87.271 169.02 85.2712 169.791 83.3127 169.833C81.9377 169.812 80.3544 169.75 79.2712 168.791C79.771 168.354 80.2919 168.854 80.7504 169.062C82.9379 169.833 85.5421 169.458 87.3545 167.979C88.0212 167.291 88.8754 166.646 88.9795 165.625C89.1045 164.729 89.8962 164.062 89.8337 163.125C89.8337 161.812 90.0631 160.479 89.8548 159.166C89.8131 158.666 89.2923 158.375 89.1673 157.916C89.0004 157.416 89.0214 156.791 88.6048 156.416C87.9173 155.687 87.2295 154.895 86.2714 154.541C85.0631 154.062 83.7714 153.854 82.5006 153.937C81.4589 154 80.5423 154.541 79.6254 155L79.5212 154.875C79.8544 154.229 80.6044 153.958 81.2294 153.729V153.729Z" fill="#133100" stroke="#133100" stroke-width="0.244792"/>
<path d="M127.312 153.771C127.896 153.813 128.479 153.75 129.042 153.625C129.25 154.188 129.771 154.771 130.354 154.896C130.917 154.375 131.646 154.188 132.312 153.813C133.25 153.313 134.417 153.75 135.125 154.438C135.229 155.521 135.167 156.625 135.125 157.709C134.604 156.792 135.292 155.688 134.812 154.792C134.062 153.438 132.229 154.063 131.208 154.709C131.187 154.73 131.146 154.75 131.125 154.75C130.667 155.229 129.833 155.563 129.833 156.313L130.083 156.396C130.042 156.438 129.979 156.479 129.937 156.521C129.792 156.438 129.646 156.375 129.521 156.292C129.562 155.584 129.417 154.896 128.979 154.334C128.042 153.959 127.021 154.104 126.042 154.084C125.312 154.063 124.396 154.584 124.437 155.417C124.375 157.5 124.458 159.584 124.375 161.667C124.333 163.271 124.437 164.896 124.271 166.5C124.229 167.146 123.708 167.563 123.271 167.979C123.166 167.708 123.146 167.417 123.229 167.146C123.521 166.875 124.062 166.75 124.021 166.25C124.021 163.063 124.042 159.854 124.042 156.667C124.042 156.042 123.542 155.25 124.063 154.709C124.042 154.563 124.042 154.417 124.042 154.271C124.25 154.125 124.437 154 124.646 153.875C125.542 153.896 126.417 153.667 127.312 153.771V153.771Z" fill="#93C663" stroke="#93C663" stroke-width="0.244792"/>
<path d="M139.958 154.146C141.042 153.354 142.479 153.5 143.75 153.479C144.687 153.458 145.562 153.77 146.458 153.958C146.687 153.979 146.833 154.104 146.958 154.271C146.083 154.375 145.229 154.021 144.375 153.979C142.896 153.792 141.437 154.062 139.958 154.146V154.146Z" fill="#E0FBC5" stroke="#E0FBC5" stroke-width="0.244792"/>
<path d="M155.854 154.062C156.958 153.542 158.187 153.667 159.375 153.542C160.854 153.646 162.541 153.583 163.75 154.583C165.25 155.604 164.229 158.312 162.5 158.354C161.604 158.417 160.771 157.875 159.937 157.583C160.958 157.354 161.896 158.021 162.896 157.875C163.875 157.5 164.208 156.25 163.833 155.333C163.708 155.083 163.375 155.062 163.146 154.958C162.604 154.812 162.166 154.437 161.646 154.25C160.229 153.938 158.75 153.979 157.312 154.063C156.791 154.083 156.354 154.354 155.937 154.646C155.583 154.729 155.229 154.813 154.875 154.917C154.812 155.313 154.812 155.771 154.458 156.042C154.208 155.875 153.937 155.75 153.666 155.625C153.604 155.896 153.562 156.167 153.5 156.438C153.333 156.521 153.166 156.604 153 156.708C153.229 155.271 154.646 154.562 155.854 154.062Z" fill="#E8FFDB" stroke="#E8FFDB" stroke-width="0.244792"/>
<path d="M41.875 154.562C43.7083 154.208 45.6458 153.708 47.5 154.167C48.2292 154.354 48.9792 155.021 49.75 154.583C49.8958 154.687 50.0417 154.771 50.1875 154.875C49.8542 155.062 50.1044 155.396 50.2708 155.562C50.8542 156.166 51.375 156.875 51.5416 157.708C51.8752 159.417 51.7085 161.187 51.75 162.917C51.7916 164.646 51.6669 166.396 51.7917 168.146C51.8333 168.479 51.6044 168.917 51.2291 168.979C50.7083 169.042 49.9377 169.313 49.6877 168.646C49.5002 169.187 48.8752 169.333 48.396 169.104C47.9585 168.917 47.9585 168.375 47.7919 167.979C47.6877 168 47.5004 168 47.4169 168C47.3544 168.021 47.271 168.042 47.2296 168.063C47.0002 168.229 46.7919 168.396 46.5629 168.542C45.9169 168.271 45.3337 168.729 44.771 168.938C42.7294 170.083 39.9794 169.229 38.7086 167.333C38.0627 166.333 38.0627 165.063 38.2711 163.938C38.7292 162.833 39.5211 161.687 40.75 161.354C41.5208 161.083 42.2917 160.688 43.125 160.604C43.9792 160.542 44.7706 160.188 45.625 160.188C46.0206 160.167 46.4373 160.229 46.7498 159.917C46.8125 159.938 46.9373 159.938 46.9998 159.938C47.2915 160.021 47.6873 159.979 47.6664 159.604C47.4998 158.708 46.9165 157.771 45.979 157.562C44.9373 157.104 43.7704 157.417 42.7081 157.125C42.4581 157.021 42.2915 157.271 42.104 157.354C42.2081 157.437 42.3748 157.583 42.479 157.667C41.7498 157.958 40.875 157.75 40.229 158.25H40.2083C40.0208 157.458 39.0208 157.271 38.7083 156.521C38.4167 155.75 38.2292 154.667 38.9167 154.062C39.8333 154.5 40.8542 154.771 41.875 154.562V154.562Z" fill="#2D262B" stroke="#2D262B" stroke-width="0.244792"/>
<path d="M55.7084 154.604C55.7295 154.229 56.1667 154.062 56.5003 154.021C57.4168 153.917 58.3753 153.875 59.3128 154.062C59.7503 154.125 59.8545 154.625 60.0834 154.937H60.2293C60.3959 154.916 60.5628 154.896 60.7084 154.875C61.9376 154.854 62.917 153.875 64.1459 153.875C65.3751 153.708 66.5628 154.104 67.6459 154.646C68.4168 154.875 68.8128 155.666 69.5209 156.021C69.542 155.917 69.5837 155.687 69.6043 155.562C69.7293 155.687 69.8334 155.812 69.9376 155.937C69.6251 156.479 70.1459 156.937 70.3128 157.417C71.0835 159.083 71.167 160.937 71.0209 162.729C71.0209 164.042 70.3334 165.208 69.9584 166.438C69.8959 166.854 69.4376 166.875 69.1041 166.979C69.1251 167.438 68.8749 167.833 68.5001 168.083C67.5834 168.708 66.5626 169.292 65.4376 169.417C64.6459 169.5 63.7918 169.583 63.1251 169.083C62.2918 169.375 61.5834 168.896 60.8334 168.604C60.5209 168.687 60.1251 168.833 60.0001 169.167C59.8126 170.854 60.4168 172.687 59.6459 174.291C58.8959 174.938 57.8126 174.791 56.8751 174.812C56.0626 174.708 55.1251 174.708 54.4792 174.167C54.7292 173.167 55.5834 172.333 55.6459 171.25C55.6876 170.333 55.5001 169.437 55.5418 168.521C55.6043 165.958 55.5834 163.395 55.5834 160.854C55.5626 158.771 55.4376 156.667 55.7084 154.604V154.604Z" fill="#30252B" stroke="#30252B" stroke-width="0.244792"/>
<path d="M74.6667 154.458C75.5833 153.833 76.6875 154.104 77.7085 154.167C78.1877 154.313 78.5208 154.771 79 154.958C79.1669 154.917 79.3542 154.896 79.5208 154.875L79.625 155C80.5417 154.542 81.4585 154 82.5002 153.938C83.771 153.854 85.0627 154.063 86.271 154.542C87.2293 154.896 87.9168 155.687 88.6043 156.417C89.021 156.792 89 157.417 89.1668 157.917C89.2918 158.375 89.8127 158.667 89.8543 159.167C90.0627 160.479 89.8333 161.812 89.8333 163.125C89.896 164.062 89.1041 164.729 88.9791 165.625C88.875 166.646 88.0208 167.292 87.3541 167.979C85.5416 169.458 82.9375 169.833 80.75 169.062C80.2917 168.854 79.7708 168.354 79.2708 168.792L79.1456 168.854L78.9998 168.75C78.9373 168.708 78.8331 168.625 78.7706 168.583C78.6664 168.833 78.5414 169.083 78.5831 169.375C78.7706 170.896 78.9373 172.479 78.5831 173.979C78.4789 174.583 77.8539 174.833 77.3123 174.812C76.1248 174.792 74.9373 174.833 73.7915 174.542C73.3958 174.437 73.2917 174 73.1875 173.667C73.9167 173.292 73.9583 172.375 74.104 171.646C74.1667 166.458 74.0833 161.25 74.1458 156.042C74.2081 155.5 73.9998 154.688 74.6667 154.458Z" fill="#2D262B" stroke="#2D262B" stroke-width="0.244792"/>
<path d="M91.1043 155.563C90.9585 155 91.0626 153.938 91.8751 154C93.1251 154 94.3751 154 95.6251 154.021C96.0207 153.958 96.2084 154.313 96.4168 154.583C96.1459 155.063 95.6666 154.583 95.3335 154.521C94.271 154.271 93.1668 154.458 92.0835 154.458C91.8541 154.458 91.4374 154.479 91.4999 154.812C91.3333 155.563 91.8124 156.188 92.146 156.792C92.396 157.812 92.8751 158.729 93.2293 159.708C94.1457 160.854 94.5418 162.271 95.2085 163.562C95.4582 164.104 95.4168 164.75 95.8124 165.229C96.3124 165.813 96.3749 166.667 96.9582 167.208C97.6457 167.875 97.7707 168.854 97.6666 169.771C97.5207 169.979 97.2499 170.021 97.0416 170.167C96.6666 171.146 95.7082 172.187 94.5624 171.979C93.9166 171.958 93.1457 171.75 92.6043 172.187C92.146 173.021 91.6876 173.979 92.146 174.917C92.7293 175.146 93.3126 175.396 93.9585 175.375C94.7291 175.437 95.6251 175.146 96.2916 175.646C95.1874 175.833 94.0626 175.875 92.9374 175.729C92.1666 175.604 91.3124 175.042 91.3958 174.167C91.4791 173.146 91.8958 172.062 92.7291 171.417C93.6041 171.167 94.5416 171.667 95.3957 171.396C96.1874 170.917 96.6249 170.02 96.9374 169.187C95.7916 165.854 94.1039 162.729 92.7082 159.5C92.7082 159.458 92.6666 159.354 92.6455 159.312C92.1668 158.042 91.5626 156.833 91.1043 155.563Z" fill="#232913" stroke="#232913" stroke-width="0.244792"/>
<path d="M101.271 155.667C101.5 154.979 101.771 154.208 102.5 153.938C103.875 154.062 105.25 154 106.646 154.021C107 154.75 106.896 155.583 106.604 156.333C106.437 155.729 106.583 154.958 106.125 154.5C105.021 154.166 103.833 154.333 102.708 154.437C101.896 154.479 101.896 155.458 101.646 156.041C101.354 156.646 101.416 157.354 101.083 157.958C100.729 158.708 100.646 159.541 100.271 160.271C100.041 161 100.021 161.812 99.6247 162.5C99.5416 162.541 99.3955 162.583 99.3333 162.625C99.833 160.271 100.604 157.979 101.271 155.667V155.667Z" fill="#1A2D05" stroke="#1A2D05" stroke-width="0.244792"/>
<path d="M131.208 154.708C132.229 154.062 134.063 153.437 134.813 154.792C134.958 155.687 134.813 156.604 134.75 157.5C134.688 157.771 134.875 158.208 134.542 158.375C134.646 157.292 134.271 156.25 134.146 155.187C134.146 154.75 133.75 154.5 133.5 154.187C132.896 154.875 131.979 154.812 131.167 154.771L131.208 154.708V154.708Z" fill="#EDFFD8" stroke="#EDFFD8" stroke-width="0.244792"/>
<path d="M139.958 154.146C141.437 154.062 142.896 153.792 144.375 153.979C145.229 154.021 146.083 154.375 146.958 154.271H147.125C147.687 154.708 148.396 154.937 148.958 155.396C149.292 155.812 149.666 156.229 149.979 156.646C150 157.166 150.021 157.687 150.062 158.208C150.145 158.208 150.291 158.249 150.375 158.271C150.396 159.208 150.646 160.104 150.666 161.041C150.687 161.75 149.833 162.104 149.916 162.833V162.854C147.645 162.833 145.395 162.854 143.125 162.833C142.52 162.833 141.895 162.792 141.312 162.937C141.312 163.021 141.333 163.187 141.333 163.271C141.27 164.417 142.416 164.937 143.125 165.604C144.416 166.187 145.916 165.833 147.166 165.312C148.083 164.917 149.291 164.812 150.083 165.521C150.562 166.271 150.333 167.167 150.27 167.979C148.687 169.125 146.812 170.104 144.791 169.958C143.291 170.042 141.895 169.479 140.479 169.062C139.979 168.833 139.52 168.458 138.979 168.333C138.125 167.583 137.166 166.854 136.708 165.792C136.395 165.062 135.958 164.354 135.916 163.521C135.854 162.354 135.875 161.167 135.895 160C135.874 158.854 136.375 157.813 136.812 156.792C137.75 155.792 138.646 154.625 139.958 154.146Z" fill="#FEFFFC" stroke="#FEFFFC" stroke-width="0.244792"/>
<path d="M155.937 154.646C156.354 154.354 156.792 154.083 157.312 154.063C158.75 153.979 160.229 153.938 161.646 154.25C162.167 154.437 162.604 154.812 163.146 154.958C163.375 155.062 163.708 155.083 163.833 155.333C164.208 156.25 163.875 157.5 162.896 157.875C161.896 158.021 160.958 157.354 159.937 157.583C159.125 157.542 157.729 157.604 157.813 158.75L158.312 159.188C158.208 159.209 158 159.229 157.917 159.229C158.583 159.958 159.646 160.042 160.583 160.021L160.75 159.834C160.354 159.792 159.917 159.854 159.542 159.688C160.125 159.688 160.729 159.688 161.229 160.042L161.021 160.021C161.229 160.313 161.417 160.604 161.667 160.854C162.063 161.125 162.563 161.021 163 160.958C163.458 160.958 163.667 161.521 163.959 161.833C163.709 161.688 163.417 161.542 163.146 161.417C163.396 162.292 164.167 162.875 164.396 163.75C164.479 164.604 164.375 165.458 164.5 166.313V166.5C164.271 166.917 164.063 167.333 163.771 167.708C162.709 169.458 160.479 170 158.563 170.021C157.917 169.917 157.25 170 156.646 169.792L156.813 169.729C156.75 169.563 156.688 169.417 156.604 169.25C155.417 169.541 154.625 168.167 153.417 168.458C153.021 167.812 152.979 167.041 152.854 166.312C153.042 165.146 154.646 164.167 155.75 164.896C156.979 165.646 158.542 166.042 159.938 165.521C159.938 165.062 160.063 164.541 159.667 164.208C158.917 163.541 157.875 163.396 156.917 163.437C156.709 163.25 156.521 163.062 156.334 162.875C156.334 162.812 156.355 162.667 156.355 162.583C155.792 162.542 155.146 162.562 154.729 162.146C154.542 161.875 154.417 161.604 154.271 161.312C154.146 161.333 153.876 161.333 153.751 161.354H153.501C152.688 159.979 152.521 158.208 153.001 156.708C153.167 156.604 153.334 156.521 153.501 156.437C153.563 156.166 153.605 155.895 153.667 155.625C153.938 155.75 154.209 155.875 154.459 156.042C154.813 155.771 154.813 155.312 154.876 154.917C155.229 154.813 155.583 154.729 155.937 154.646V154.646Z" fill="#FEFEFD" stroke="#FEFEFD" stroke-width="0.244792"/>
<path d="M124.438 155.417C124.396 154.583 125.313 154.062 126.042 154.083C127.021 154.104 128.042 153.958 128.979 154.333C129.417 154.896 129.563 155.583 129.521 156.292C129.646 156.375 129.792 156.437 129.938 156.521C129.979 156.479 130.042 156.438 130.083 156.396L129.833 156.312C129.833 155.562 130.667 155.229 131.125 154.75L131.167 154.771C131.979 154.812 132.896 154.875 133.5 154.187C133.75 154.5 134.146 154.75 134.146 155.188C134.271 156.25 134.646 157.292 134.542 158.375C134.479 159.333 133.188 159.187 132.5 159.271C131.375 159.083 130.562 160.104 130.187 161.042C129.167 163.417 129.625 166.021 129.458 168.521C129.312 169.438 128.25 169.563 127.5 169.521C126.229 169.417 124.813 169.792 123.687 169.042C123.271 168.854 123.125 168.375 123.271 167.979C123.708 167.562 124.229 167.146 124.271 166.5C124.438 164.896 124.333 163.271 124.375 161.667C124.458 159.583 124.375 157.5 124.438 155.417V155.417Z" fill="#FDFFFA" stroke="#FDFFFA" stroke-width="0.244792"/>
<path d="M91.5 154.813C91.4375 154.479 91.8541 154.459 92.0835 154.459C93.1666 154.459 94.271 154.271 95.3335 154.521C95.6668 154.584 96.146 155.063 96.4168 154.584C96.5835 154.834 96.7083 155.125 96.771 155.438C96.4375 156.063 96.8541 156.688 97.0418 157.292C97.396 158.271 97.6043 159.313 98.0002 160.292C98.3543 161.125 98.4168 162.063 98.8335 162.875L99.021 162.729C99.1041 162.708 99.2502 162.646 99.3335 162.625C99.396 162.584 99.5418 162.542 99.625 162.5C100.021 161.813 100.042 161 100.271 160.271C100.646 159.542 100.729 158.708 101.083 157.958C101.417 157.354 101.354 156.646 101.646 156.042C101.896 155.458 101.896 154.479 102.709 154.438C103.833 154.333 105.021 154.167 106.125 154.5C106.583 154.958 106.437 155.729 106.604 156.334C106.583 156.417 106.542 156.604 106.5 156.688C106.396 156.563 106.271 156.417 106.146 156.292C106.021 157.229 105.417 158.021 105.209 158.938C105.042 159.854 104.375 160.583 104.25 161.521C103.479 162.521 103.583 163.875 102.813 164.875C102.021 166.792 101.375 168.771 100.771 170.771C100.458 171.542 99.9791 172.25 99.7502 173.063C98.9585 173.5 98.4791 174.334 97.6458 174.729C97.2708 174.938 96.8752 175.084 96.5 175.25C96.5416 175.333 96.6458 175.479 96.7083 175.542C96.6041 175.563 96.3958 175.625 96.2916 175.646C95.6252 175.146 94.7291 175.437 93.9585 175.375C93.3125 175.396 92.7293 175.146 92.146 174.917C91.6877 173.979 92.146 173.021 92.6043 172.187C93.146 171.75 93.9168 171.958 94.5625 171.979C95.7083 172.187 96.6668 171.146 97.0416 170.167C97.25 170.021 97.5208 169.979 97.6666 169.771C97.7708 168.854 97.6456 167.875 96.9583 167.208C96.375 166.667 96.3125 165.813 95.8125 165.229C95.4168 164.75 95.4583 164.104 95.2085 163.563C94.5418 162.271 94.1458 160.854 93.2293 159.708C92.8752 158.729 92.396 157.813 92.146 156.792C91.8125 156.188 91.3335 155.563 91.5 154.813V154.813Z" fill="#2D262B" stroke="#2D262B" stroke-width="0.244792"/>
<path d="M131.125 154.75C131.146 154.75 131.187 154.729 131.208 154.708L131.167 154.771L131.125 154.75V154.75Z" fill="#B0DE86" stroke="#B0DE86" stroke-width="0.244792"/>
<path d="M50.2709 155.563C50.1043 155.396 49.8543 155.063 50.1876 154.875C51.4793 155.813 52.1878 157.396 52.1668 158.958C52.146 161.729 52.1668 164.521 52.1668 167.292C52.146 168.063 52.146 168.917 51.6045 169.5C50.6459 169.542 49.6668 169.521 48.7086 169.542H48.2711C47.7086 169.208 47.4378 168.625 47.4167 168C47.5001 168 47.6876 168 47.7917 167.979C47.9586 168.375 47.9586 168.917 48.3959 169.104C48.8751 169.333 49.5001 169.187 49.6876 168.646C49.9376 169.313 50.7082 169.042 51.2291 168.979C51.6043 168.917 51.8333 168.479 51.7916 168.146C51.6666 166.396 51.7916 164.646 51.7499 162.917C51.7085 161.188 51.8751 159.417 51.5416 157.708C51.3751 156.875 50.8543 156.167 50.2709 155.563V155.563Z" fill="#173100" stroke="#173100" stroke-width="0.244792"/>
<path d="M181.208 154.958C181.562 155 181.75 155.292 181.937 155.563C182.541 156.354 182.854 157.354 183.021 158.333C183.021 161.771 183.021 165.208 183 168.646C182.75 168.917 182.521 169.167 182.292 169.438C181.062 169.604 179.792 169.563 178.542 169.438C178.062 169.188 177.833 168.625 177.771 168.125C177.771 165.333 177.792 162.542 177.75 159.75C177.958 160 178.229 160.25 178.166 160.604C178.166 162.563 178.146 164.5 178.187 166.459C178.208 167.209 178.062 168 178.354 168.729C179.125 168.834 179.917 168.875 180.625 169.25C181.5 169.479 181.479 168.104 182.312 168.209C182.437 167.917 182.583 167.625 182.562 167.292C182.583 164.584 182.562 161.875 182.583 159.188C182.646 158.584 182.25 158.084 182.146 157.5C182.021 157.063 182.062 156.521 181.708 156.188C181.375 155.854 181.333 155.375 181.208 154.958Z" fill="#E7FFD3" stroke="#E7FFD3" stroke-width="0.244792"/>
<path d="M100.187 157.854C100.542 156.979 100.437 155.896 101.187 155.208C101.208 155.333 101.25 155.542 101.271 155.667C100.604 157.979 99.8333 160.271 99.3333 162.625C99.2499 162.646 99.1039 162.708 99.0208 162.729C98.9166 162.167 98.7708 161.604 98.6458 161.042C98.8124 161.187 99.1666 161.604 99.3333 161.187C99.4374 160.708 99.4791 160.187 99.7708 159.771C99.9372 159.146 99.9372 158.459 100.187 157.854V157.854Z" fill="#9AC565" stroke="#9AC565" stroke-width="0.244792"/>
<path d="M96.7708 155.437C97.5208 157.208 98.0416 159.083 98.6041 160.917L98.6458 161.042C98.7708 161.604 98.9166 162.167 99.0208 162.729L98.8333 162.875C98.4166 162.063 98.3541 161.125 97.9999 160.292C97.6043 159.313 97.396 158.271 97.0416 157.292C96.8541 156.687 96.4374 156.062 96.7708 155.437V155.437Z" fill="#173100" stroke="#173100" stroke-width="0.244792"/>
<path d="M106.146 156.292C106.271 156.417 106.396 156.562 106.5 156.687C104.854 161.145 103.062 165.541 101.458 170.021C101.083 171.208 100.521 172.312 99.9166 173.396C99.0833 174.437 97.9792 175.208 96.7083 175.541C96.6458 175.479 96.5417 175.333 96.5 175.25C96.8752 175.083 97.2708 174.937 97.6458 174.729C98.4792 174.333 98.9585 173.5 99.7502 173.062C99.9794 172.25 100.458 171.542 100.771 170.771C101.375 168.771 102.021 166.791 102.813 164.875C103.583 163.875 103.479 162.52 104.25 161.52C104.375 160.583 105.042 159.854 105.208 158.937C105.417 158.021 106.021 157.229 106.146 156.292V156.292Z" fill="#173003" stroke="#173003" stroke-width="0.244792"/>
<path d="M22.1458 156.458C24.6458 156.333 27.1874 156.354 29.6874 156.437C29.1456 156.75 28.5206 156.708 27.9166 156.729C26.2499 156.708 24.5833 156.729 22.9166 156.729C22.6249 156.729 22.3749 156.646 22.1458 156.458Z" fill="#17310A" stroke="#17310A" stroke-width="0.244792"/>
<path d="M149.979 156.646C150.417 157.104 150.584 157.771 150.646 158.396C150.604 158.646 150.625 158.938 150.813 159.146C151.167 160.084 150.979 161.125 150.959 162.104C150.667 162.417 150.334 162.708 149.917 162.833C149.834 162.104 150.688 161.75 150.667 161.042C150.646 160.104 150.396 159.208 150.375 158.271C150.292 158.25 150.146 158.208 150.063 158.208C150.021 157.688 150 157.167 149.979 156.646V156.646Z" fill="#E7FFD3" stroke="#E7FFD3" stroke-width="0.244792"/>
<path d="M42.104 157.354C42.2915 157.271 42.4581 157.021 42.7081 157.125C43.7706 157.417 44.9373 157.104 45.979 157.563C46.9164 157.771 47.4998 158.708 47.6664 159.604C47.6873 159.979 47.2914 160.021 46.9998 159.938C46.9373 159.479 47.0831 158.896 46.6664 158.542C46.0623 157.813 45.0623 157.646 44.1454 157.75C42.8123 157.75 41.5829 158.75 40.2288 158.25C40.8748 157.75 41.7496 157.959 42.4788 157.667C42.3748 157.583 42.2081 157.438 42.104 157.354Z" fill="#25240F" stroke="#25240F" stroke-width="0.244792"/>
<path d="M141.916 158.333C142.187 157.354 143.458 157.375 144.271 157.396C145.041 157.875 145.708 158.583 145.833 159.5C144.646 159.563 143.479 159.5 142.291 159.604C142.208 159.521 142.02 159.375 141.916 159.292C142.104 158.917 142.416 158.562 142.354 158.125C142.25 158.167 142.02 158.292 141.916 158.333Z" fill="#88D13A" stroke="#88D13A" stroke-width="0.244792"/>
<path d="M144.271 157.396C145.063 157.417 145.854 157.521 146.625 157.75C146.396 157.979 146.125 158.208 146.042 158.542C146.167 158.896 146.417 159.208 146.625 159.521C145.542 159.729 144.417 160.188 143.333 159.812C142.896 159.667 142.479 159.938 142.083 160.042C141.854 159.917 141.625 159.771 141.396 159.646C141.708 159.625 142 159.604 142.292 159.604C143.479 159.5 144.646 159.563 145.834 159.5C145.709 158.583 145.042 157.875 144.271 157.396Z" fill="#F2FFDC" stroke="#F2FFDC" stroke-width="0.244792"/>
<path d="M62.3541 157.792C63.4375 157.416 64.5833 157.854 65.3958 158.562C66.3333 159.375 66.6458 160.687 66.6249 161.896C66.4374 162.979 66.2914 164.208 65.3958 164.958C64.5 165.604 63.3125 166 62.2291 165.687C61.2085 165.271 60.125 164.5 60.0208 163.312C60.0208 162.146 59.9377 160.958 60.0208 159.792C60.3542 158.75 61.25 157.937 62.3541 157.792Z" fill="#192F0B" stroke="#192F0B" stroke-width="0.244792"/>
<path d="M81.104 157.792C81.9163 157.479 82.7915 157.812 83.5415 158.146C84.8123 158.792 85.3332 160.312 85.3748 161.666C85.229 162.729 85.1454 163.937 84.3121 164.75C83.3121 165.729 81.6455 166.187 80.3748 165.437C79.6873 164.896 78.8748 164.271 78.7913 163.312C78.7082 162.292 78.7082 161.229 78.7705 160.208C78.8748 158.958 79.9582 158.083 81.104 157.792V157.792Z" fill="#1F2F00" stroke="#1F2F00" stroke-width="0.244792"/>
<path d="M60.3542 160C60.875 159.042 61.7708 158.167 62.9167 158.167C63.75 158.083 64.5833 158.375 65.1456 159.021C66.9375 160.687 66.479 164.187 64.1667 165.125C62.6456 165.771 60.9165 164.812 60.3125 163.354C60.3542 162.229 60.2708 161.104 60.3542 160ZM81.125 158.229C82 158.062 83.0211 158.146 83.6875 158.833C84.625 159.521 85.0417 160.729 84.9586 161.875C85.0627 163.646 83.5002 165.479 81.6669 165.312C80.5 165.25 79.5419 164.375 79.0836 163.333C79.0627 162.229 79.0211 161.125 79.1044 160.021C79.5417 159.229 80.2292 158.5 81.125 158.229V158.229Z" fill="#99CD63" stroke="#99CD63" stroke-width="0.244792"/>
<path d="M141.916 158.333C142.021 158.292 142.25 158.167 142.354 158.125C142.417 158.562 142.104 158.917 141.916 159.292C142.021 159.375 142.208 159.521 142.292 159.604C142 159.604 141.708 159.625 141.396 159.646C141.354 159.187 141.625 158.812 141.791 158.396L141.916 158.333V158.333Z" fill="#A4C872" stroke="#A4C872" stroke-width="0.244792"/>
<path d="M150.646 158.396C150.979 158.354 151.042 158.958 150.813 159.146C150.625 158.937 150.604 158.646 150.646 158.396Z" fill="#D0F4A6" stroke="#D0F4A6" stroke-width="0.244792"/>
<path d="M62.7708 158.604C63.3125 158.542 63.8956 158.688 64.3958 158.958C64.9375 159.229 65.1667 159.854 65.625 160.229C65.8123 161.104 66 162.063 65.6458 162.917C65.3125 163.604 64.9583 164.375 64.1667 164.625C62.7915 165.417 61.0833 164.292 60.5833 162.937C60.5417 162.104 60.5417 161.25 60.5625 160.417C61.0417 159.583 61.7917 158.833 62.7708 158.604V158.604Z" fill="#86D434" stroke="#86D434" stroke-width="0.244792"/>
<path d="M81.3126 158.625C82.1042 158.438 83.0001 158.833 83.6251 159.313C84.2501 160.146 84.8751 161.208 84.5836 162.292C84.4167 162.896 84.0836 163.438 83.7917 164C83.1667 164.563 82.3126 164.938 81.4586 164.875C80.5001 164.625 79.6045 163.917 79.3542 162.917C79.3334 162.083 79.3334 161.25 79.3753 160.417C79.7292 159.896 79.9586 159.167 80.6042 158.938C80.8334 158.813 81.0626 158.708 81.3126 158.625Z" fill="#87D335" stroke="#87D335" stroke-width="0.244792"/>
<path d="M157.917 159.229C158 159.229 158.208 159.208 158.312 159.187C158.729 159.313 159.125 159.5 159.542 159.687C159.917 159.854 160.354 159.792 160.75 159.833L160.583 160.02C159.646 160.041 158.583 159.958 157.917 159.229Z" fill="#E7FBCF" stroke="#E7FBCF" stroke-width="0.244792"/>
<path d="M93.2705 162.146C93.0207 161.312 92.1874 160.375 92.7082 159.5C94.1039 162.729 95.7916 165.854 96.9374 169.187C96.6249 170.021 96.1872 170.917 95.3957 171.396C94.5416 171.667 93.6041 171.167 92.7291 171.417C91.8957 172.063 91.4791 173.146 91.3957 174.167C91.3126 175.042 92.1666 175.604 92.9374 175.729C94.0624 175.875 95.1874 175.834 96.2916 175.646C96.3957 175.625 96.6041 175.563 96.7082 175.542C97.9793 175.208 99.0832 174.438 99.9166 173.396C100.167 173.896 99.8332 174.375 99.4166 174.604C98.5001 175.167 97.6249 176.021 96.4791 175.98C95.3541 175.938 94.2291 176.021 93.1249 176.188C92.4582 175.98 91.5624 175.98 91.1457 175.333C90.9374 174.083 91.083 172.708 91.8332 171.625C92.1247 171.208 92.6455 171.021 93.1249 170.896C93.2291 170.938 93.4582 171 93.5624 171.042C94.0832 170.896 94.6457 170.896 95.1874 170.875C95.8124 170.667 96.0832 170 96.5416 169.604C96.4791 169.083 96.2707 168.625 96.0207 168.187C95.6041 167.458 95.6874 166.542 95.1666 165.875C94.8124 165.458 94.8749 164.833 94.5205 164.416C93.8749 163.771 93.9997 162.729 93.2705 162.146V162.146Z" fill="#99CD63" stroke="#99CD63" stroke-width="0.244792"/>
<path d="M39.375 161.687C41.4166 160.042 44.2083 159.771 46.7497 159.917C46.4372 160.229 46.0206 160.167 45.6249 160.188C44.7706 160.188 43.9791 160.542 43.125 160.604C42.2916 160.687 41.5208 161.084 40.75 161.354C39.521 161.688 38.7291 162.834 38.271 163.938C38.0627 165.062 38.0627 166.333 38.7085 167.333C39.9793 169.229 42.7293 170.083 44.771 168.938C45.3335 168.729 45.9168 168.271 46.5629 168.542C45.3129 169.229 43.9587 169.854 42.5212 169.833C41.417 169.729 40.2295 169.5 39.3754 168.729C37.2083 167.104 37.1875 163.333 39.375 161.687Z" fill="#173100" stroke="#173100" stroke-width="0.244792"/>
<path d="M161.021 160.021L161.229 160.042C161.896 160.104 162.521 160.5 163 160.958C162.562 161.021 162.062 161.125 161.667 160.854C161.417 160.604 161.229 160.313 161.021 160.021Z" fill="#EAFFD0" stroke="#EAFFD0" stroke-width="0.244792"/>
<path d="M153.75 161.354C153.875 161.333 154.146 161.333 154.271 161.312C154.417 161.604 154.542 161.875 154.729 162.146C155.146 162.562 155.792 162.542 156.354 162.583C156.354 162.667 156.333 162.813 156.333 162.875C156.521 163.062 156.708 163.25 156.917 163.437C155.562 163.312 154.417 162.5 153.562 161.479L153.75 161.354V161.354Z" fill="#DEF8C2" stroke="#DEF8C2" stroke-width="0.244792"/>
<path d="M163.146 161.417C163.417 161.542 163.708 161.687 163.958 161.833C164.979 163 165.167 164.917 164.5 166.313C164.375 165.458 164.479 164.604 164.396 163.75C164.167 162.875 163.396 162.292 163.146 161.417Z" fill="#E2FAC5" stroke="#E2FAC5" stroke-width="0.244792"/>
<path d="M43.1667 163.416C44.2709 162.479 45.8334 162.312 47.2082 162.562C47.4375 163.145 47.5831 163.812 47.2498 164.375C46.4998 165.041 45.7707 165.812 44.7915 166.145C44.1873 166.208 43.5832 166.25 42.979 166.187C42.1667 165.458 42.4584 164.104 43.1667 163.416V163.416Z" fill="#222E07" stroke="#222E07" stroke-width="0.244792"/>
<path d="M43.3333 163.937C43.8541 163.437 44.5 163 45.2291 162.896C45.8124 162.854 46.396 162.875 46.9999 162.833C46.9999 163.312 46.9374 163.771 46.6666 164.187C46.5833 163.833 46.4791 163.5 46.3749 163.167C45.7083 163.25 45.0418 163.396 44.3958 163.646C44.6666 163.792 44.9377 163.958 45.2083 164.125C44.77 164.353 44.3254 164.568 43.875 164.771C43.9166 164.938 43.9583 165.25 44.0002 165.396C44.875 165.521 45.5416 164.917 46.0835 164.313C46.1666 164.375 46.3127 164.521 46.396 164.583C45.7083 165.479 44.521 165.958 43.396 165.75C42.8958 165.292 42.8541 164.437 43.3333 163.937Z" fill="#91CA56" stroke="#91CA56" stroke-width="0.244792"/>
<path d="M44.3958 163.646C45.0418 163.396 45.7083 163.25 46.375 163.167C46.4791 163.5 46.5833 163.833 46.6666 164.187C46.5833 164.313 46.5 164.458 46.3958 164.583C46.3125 164.521 46.1664 164.375 46.0833 164.312C45.5414 164.916 44.8748 165.521 44 165.396C43.9583 165.25 43.9166 164.937 43.8748 164.771C44.3331 164.562 44.7706 164.354 45.2081 164.125C44.9375 163.958 44.6666 163.792 44.3958 163.646Z" fill="#89D236" stroke="#89D236" stroke-width="0.244792"/>
<path d="M141.334 163.271C142.042 164.167 142.75 165.292 143.959 165.5C145.271 165.667 146.563 165.188 147.688 164.584C149 164.042 150.583 165.063 150.708 166.459C150.729 166.834 150.729 167.209 150.729 167.584C150.583 167.709 150.438 167.854 150.271 167.979C150.333 167.167 150.562 166.271 150.083 165.521C149.292 164.812 148.084 164.917 147.167 165.313C145.917 165.833 144.417 166.188 143.126 165.604C142.417 164.938 141.271 164.417 141.334 163.271Z" fill="#E9FFBF" stroke="#E9FFBF" stroke-width="0.244792"/>
<path d="M150.708 166.458C151.417 166.583 151.146 167.354 151.187 167.854C150.854 168.146 150.562 168.479 150.292 168.833C149.958 168.875 149.562 168.854 149.333 169.125C148.896 169.521 148.312 169.625 147.833 169.958C147.687 170.083 147.5 170.125 147.292 170.146C145.771 170.25 144.229 170.354 142.687 170.083C141.5 170.104 140.416 169.541 139.416 168.916C139.166 168.812 139.083 168.541 138.979 168.333C139.52 168.458 139.979 168.833 140.479 169.062C141.895 169.479 143.291 170.041 144.791 169.958C146.812 170.104 148.687 169.125 150.271 167.979C150.437 167.854 150.583 167.708 150.729 167.583C150.729 167.208 150.729 166.833 150.708 166.458V166.458Z" fill="#97C85E" stroke="#97C85E" stroke-width="0.244792"/>
<path d="M152.625 167.812C152.625 167.333 152.396 166.667 152.854 166.312C152.979 167.042 153.021 167.812 153.417 168.458C154.625 168.167 155.417 169.542 156.604 169.25C156.688 169.417 156.75 169.563 156.813 169.729L156.646 169.792C155.958 169.709 155.229 169.667 154.604 169.313C153.896 168.896 152.896 168.729 152.625 167.812V167.812Z" fill="#E6FFCA" stroke="#E6FFCA" stroke-width="0.244792"/>
<path d="M60.3957 168.917C60.5209 168.979 60.7499 169.083 60.8751 169.125C60.7499 169.354 60.5834 169.479 60.3333 169.5C60.3333 169.354 60.3749 169.062 60.3957 168.917Z" fill="#97B97A" stroke="#97B97A" stroke-width="0.244792"/>
<path d="M118.543 26.0094C124.642 20.8038 133.02 19.2665 140.854 19.4651C145.118 19.6134 149.282 20.1588 153.446 21.0017C154.29 27.5461 152.058 34.1396 148.44 39.494C145.316 44.1546 141.003 48.0713 135.896 50.3023C134.855 50.798 133.665 50.9469 132.723 51.6407C146.704 62.5478 153.893 81.3871 151.017 98.8884C149.431 109.597 144.275 119.761 136.49 127.297C133.566 129.775 128.558 131.411 125.435 128.387C118.246 133.642 109.074 135.823 100.25 135.526C91.5237 135.774 82.5997 133.543 75.5102 128.387C74.3206 129.477 72.7339 130.37 71.0981 129.924C67.8754 129.131 64.9995 127.345 62.5208 125.263C51.5149 113.315 46.9537 95.8636 50.6222 80.0488C53.5474 66.4644 62.372 54.3178 74.3208 47.2778C83.1454 41.9234 93.6062 39.494 103.869 40.1388C105.505 35.8255 106.744 31.3634 108.926 27.3473C109.62 26.2071 110.661 24.9182 112.148 25.0669C113.487 25.2155 113.983 26.9507 113.438 28.0415C111.851 32.0571 110.314 36.0732 108.727 40.0888C108.38 41.0311 109.769 40.7334 110.265 40.9317C111.305 35.2307 113.983 29.7278 118.543 26.0094V26.0094ZM125.583 26.0588C120.18 28.5869 116.065 33.5448 114.676 39.3453C114.528 39.9403 114.032 40.7336 114.726 41.2292C116.808 43.3115 118.642 45.7905 121.37 47.0798C125.038 48.914 129.501 48.5173 133.268 47.1786C139.118 44.9476 143.63 40.139 146.605 34.7842C148.191 31.463 149.778 27.8932 149.579 24.1748C141.597 23.084 133.07 22.539 125.583 26.0588V26.0588ZM95.6885 44.1546C91.5237 44.6503 87.4587 45.5428 83.5418 47.0798C71.9904 51.5417 62.372 60.664 57.3649 71.9673C52.6549 82.3788 51.961 94.5251 55.4812 105.383C57.3649 111.035 60.042 116.538 64.0581 120.951C64.4052 121.595 64.7518 122.438 65.4954 122.735C65.3466 123.479 66.3383 124.619 67.082 124.47L67.2306 124.966C68.8172 125.958 70.9489 127.197 72.7341 125.908C74.1716 124.47 73.577 122.19 72.5356 120.752C71.1472 118.472 68.4699 117.529 66.9827 115.348C65.4954 113.365 64.7022 110.936 64.405 108.506C64.2064 104.738 66.041 101.268 68.4699 98.4913C70.0072 97.7478 71.2466 96.5084 72.9818 96.1615C76.9972 95.418 81.0629 96.6078 84.7812 98.0948C92.6145 100.276 100.894 100.624 108.975 99.5821C112.197 99.0867 115.42 98.5413 118.445 97.2523C121.469 96.1617 124.79 95.6163 128.013 96.1617C130.492 96.8063 132.425 98.5909 134.111 100.376C137.036 104.54 137.432 110.489 134.408 114.754C132.673 117.629 128.955 118.769 127.765 122.041C126.922 123.677 127.418 125.958 129.351 126.503C132.028 126.553 134.408 124.768 135.797 122.587C138.721 118.769 141.994 114.902 143.431 110.242C143.977 109.795 144.175 109.052 144.423 108.407C148.141 99.0867 148.736 88.5761 146.109 78.9584C143.63 69.4888 137.978 60.9119 130.442 54.6653C128.955 53.6238 127.616 51.8394 125.583 52.038C121.618 52.038 118.097 49.9555 115.222 47.4765C113.685 44.9978 109.867 44.3532 107.537 46.0386C105.009 46.5842 105.207 49.8067 103.869 51.4921C105.802 52.1365 107.686 50.9963 109.273 49.9555C110.561 48.8153 111.95 51.1948 111.057 52.1865C109.421 54.2188 106.744 54.9132 104.265 54.9626C100.547 55.0619 96.4318 53.3761 94.9443 49.7569C94.3495 48.6167 95.4895 47.3773 96.6797 47.4765C97.8697 48.7159 98.7622 50.699 100.695 50.8478C101.141 49.2117 101.687 47.5259 102.183 45.8405C102.381 45.1955 102.579 44.6011 102.777 43.9561C101.885 42.8159 100.051 43.4603 98.7622 43.3617C97.771 43.6094 96.2337 43.0638 95.6885 44.1546V44.1546ZM71.7427 100.624C69.611 102.26 68.5202 104.987 68.3714 107.564C68.1237 110.837 70.2054 113.762 72.7835 115.497C74.6674 117.331 76.3531 119.463 77.1962 121.942C77.5433 122.934 77.2456 124.074 77.7414 125.015C78.7829 125.908 80.0222 126.553 81.2616 127.297C85.5249 129.627 90.3341 130.964 95.1927 131.51L95.5397 131.907C98.0187 132.502 100.696 132.154 103.224 132.204C104.067 132.055 105.257 132.304 105.802 131.51C110.661 130.916 115.52 129.626 119.783 127.246C121.072 126.503 122.46 125.858 123.501 124.768C123.204 121.099 125.683 117.976 128.162 115.546C130.393 113.96 132.326 111.679 132.574 108.853C132.921 106.275 131.88 103.598 130.343 101.615C128.31 99.1859 124.84 99.0865 121.964 99.7311C116.015 101.467 110.016 103.648 103.72 103.747C100.25 103.796 96.7293 103.945 93.3087 103.4C88.2516 102.755 83.4427 100.921 78.5345 99.5821C76.2539 99.285 73.6264 99.1365 71.7427 100.624V100.624Z" fill="#2A262A" stroke="#2A262A" stroke-width="0.244792"/>
<path d="M125.584 26.0588C133.07 22.5388 141.598 23.084 149.579 24.1749C149.183 26.0588 148.786 27.9426 148.043 29.7278C140.755 28.5378 132.921 28.5378 126.03 31.4632C121.766 33.2969 118.296 36.6188 116.164 40.6844L114.677 39.3455C116.065 33.5449 120.18 28.5869 125.584 26.0588Z" fill="#D7DF27" stroke="#D7DF27" stroke-width="0.244792"/>
<path d="M149.579 24.1749C149.778 27.8935 148.192 31.4631 146.605 34.7843C143.63 40.1391 139.118 44.9476 133.268 47.1787C129.501 48.5174 125.039 48.9141 121.37 47.0799C118.643 45.7908 116.808 43.3118 114.727 41.2293C114.032 40.7337 114.528 39.9403 114.677 39.3453L116.164 40.6843C118.048 42.8658 120.23 45.1462 123.155 45.8405C128.906 47.3772 135.103 45.3449 139.565 41.5766C143.283 38.4039 146.258 34.2887 148.043 29.7278C148.786 27.9428 149.183 26.0589 149.579 24.1749V24.1749Z" fill="#3EB44A" stroke="#3EB44A" stroke-width="0.244792"/>
<path d="M126.031 31.4629C132.921 28.5374 140.755 28.5374 148.043 29.7274C146.258 34.2881 143.283 38.4035 139.565 41.5762C135.103 45.3445 128.906 47.3768 123.155 45.8402C120.23 45.1458 118.048 42.8656 116.164 40.6839C118.296 36.6187 121.766 33.2968 126.031 31.4629V31.4629Z" fill="#7BC044" stroke="#7BC044" stroke-width="0.244792"/>
<path d="M95.6885 44.1545C96.2335 43.0637 97.771 43.6093 98.7624 43.3616C100.051 43.4601 101.885 42.8158 102.778 43.956C100.448 43.9066 98.0681 43.9066 95.6885 44.1545Z" fill="#0A1628" stroke="#0A1628" stroke-width="0.244792"/>
<path d="M83.5421 47.0797C87.4589 45.5426 91.5237 44.6501 95.6887 44.1545C98.0681 43.9066 100.448 43.9066 102.778 43.9559C102.58 44.6009 102.382 45.1953 102.183 45.8403C92.3175 45.8897 82.5508 49.1124 74.6183 54.9128C65.8929 61.358 59.2985 70.7778 56.7208 81.387C53.5971 92.9388 55.3323 105.73 61.2817 116.141C62.0754 117.777 63.4137 119.165 64.0583 120.95C60.0423 116.537 57.3654 111.035 55.4815 105.383C51.9613 94.5249 52.6554 82.3784 57.3652 71.967C62.3721 60.6638 71.9904 51.5416 83.5421 47.0797V47.0797Z" fill="#FAAF41" stroke="#FAAF41" stroke-width="0.244792"/>
<path d="M107.537 46.0384C109.867 44.353 113.685 44.9976 115.222 47.4763C113.338 47.1292 111.504 46.7819 109.619 46.4349C108.926 46.2863 108.232 46.1869 107.537 46.0384Z" fill="#CF933A" stroke="#CF933A" stroke-width="0.244792"/>
<path d="M74.618 54.9129C82.5505 49.1123 92.3172 45.8896 102.183 45.8405C101.687 47.5257 101.142 49.2117 100.696 50.8477C98.7626 50.699 97.8703 48.7159 96.6801 47.4765C95.4899 47.3771 94.3497 48.6167 94.9447 49.7569C96.4322 53.3761 100.547 55.0619 104.266 54.9625C106.744 54.9132 109.421 54.2188 111.058 52.1865C111.95 51.1948 110.562 48.8152 109.273 49.9555C107.687 50.9963 105.803 52.1365 103.869 51.4921C105.208 49.8069 105.009 46.5842 107.538 46.0386C108.232 46.1871 108.926 46.2863 109.62 46.435C111.256 49.8067 114.28 52.5334 117.899 53.4752C121.965 54.5659 126.228 55.0617 130.442 54.665C137.978 60.9117 143.63 69.4886 146.109 78.9581C148.737 88.5758 148.142 99.0865 144.423 108.407C144.175 109.051 143.977 109.795 143.432 110.241C141.448 112.175 140.11 114.604 138.325 116.687C137.582 117.579 136.49 118.025 135.351 118.224C137.83 114.951 139.118 110.688 138.028 106.622C138.573 106.474 138.92 106.127 139.118 105.581C140.755 102.111 140.656 97.8969 138.871 94.5252C137.433 91.7492 134.855 89.5675 131.88 88.5758C127.715 87.7827 123.551 89.1217 119.634 90.5592C110.661 92.9392 101.093 93.2858 91.9701 91.3029C87.8553 90.6583 84.137 88.3281 79.9228 88.3777C74.1219 87.7827 69.1151 92.9885 68.4701 98.4912C66.0411 101.268 64.2067 104.738 64.405 108.506C59.5959 101.169 57.0669 92.344 57.1171 83.5688C57.1171 82.825 56.9186 82.0815 56.7205 81.3871C59.2982 70.7779 65.8923 61.3582 74.618 54.9129V54.9129ZM84.5828 51.0955C81.5092 52.0377 78.7326 54.3673 77.6917 57.4911C77.444 58.3336 76.9974 59.6229 78.039 60.1679C79.4765 60.5646 81.0136 60.1679 82.4015 59.6723C84.9299 58.7307 87.3592 57.144 88.8467 54.8138C89.4911 53.8223 89.8878 52.2357 88.7476 51.4427C87.5576 50.5502 85.9215 50.8475 84.5828 51.0955V51.0955ZM72.5853 61.4573C71.2961 61.804 70.503 62.9446 69.6107 63.8369C66.884 66.6131 64.3059 69.5877 62.4219 73.0088C61.8269 74.1981 61.3805 76.2806 63.1157 76.7765C65.5453 77.3219 67.7265 75.6363 69.4615 74.0996C71.8415 71.8188 73.9234 69.1419 75.2621 66.0679C76.3038 64.1842 74.8163 61.4075 72.5853 61.4573V61.4573Z" fill="#F05A2A" stroke="#F05A2A" stroke-width="0.244792"/>
<path d="M109.62 46.4349C111.504 46.782 113.338 47.1293 115.222 47.4764C118.098 49.9554 121.618 52.0379 125.584 52.0379C127.616 51.8393 128.955 53.6239 130.442 54.6652C126.228 55.0618 121.965 54.566 117.899 53.4754C114.28 52.5333 111.256 49.8066 109.62 46.4349V46.4349Z" fill="#C74E28" stroke="#C74E28" stroke-width="0.244792"/>
<path d="M84.5829 51.0954C85.9216 50.8477 87.5575 50.5502 88.7477 51.4427C89.8879 52.2357 89.4912 53.8223 88.8469 54.8138C87.3596 57.1442 84.93 58.7306 82.4016 59.6723C81.0137 60.1679 79.4764 60.5646 78.0391 60.1679C76.9975 59.6229 77.4441 58.3336 77.6918 57.4911C78.7329 54.3673 81.5093 52.0377 84.5829 51.0954V51.0954ZM72.5854 61.4573C74.8164 61.4075 76.3037 64.1842 75.2623 66.0679C73.9235 69.1419 71.8418 71.8188 69.4616 74.0996C67.7264 75.6363 65.5452 77.3219 63.1158 76.7765C61.3806 76.2806 61.827 74.1981 62.422 73.0088C64.3058 69.5877 66.8841 66.6131 69.6108 63.8369C70.5031 62.9446 71.2962 61.804 72.5854 61.4573V61.4573Z" fill="#FAAF41" stroke="#FAAF41" stroke-width="0.244792"/>
<path d="M56.7207 81.3871C56.9188 82.0815 57.1173 82.825 57.1173 83.5687C57.0673 92.3439 59.5961 101.169 64.4052 108.506C64.7025 110.936 65.4955 113.365 66.983 115.348C68.4703 117.529 71.1475 118.471 72.5359 120.752C73.5773 122.189 74.1719 124.47 72.7344 125.908C70.9492 127.197 68.8175 125.957 67.2309 124.966L67.0823 124.47C67.033 123.578 66.438 122.884 65.4957 122.735C64.7519 122.438 64.4055 121.595 64.0584 120.951C63.4138 119.165 62.0753 117.777 61.2817 116.141C55.3321 105.73 53.5969 92.9389 56.7207 81.3871V81.3871Z" fill="#EE4032" stroke="#EE4032" stroke-width="0.244792"/>
<path d="M68.4702 98.4913C69.1152 92.9886 74.1221 87.7827 79.9229 88.3777C84.1371 88.3279 87.8555 90.6583 91.9703 91.3029C101.093 93.2859 110.661 92.9392 119.634 90.5592C123.551 89.1217 127.716 87.7829 131.881 88.5758C134.855 89.5675 137.433 91.749 138.871 94.5252C140.656 97.8969 140.755 102.111 139.118 105.582C138.92 106.127 138.573 106.474 138.028 106.623C137.334 104.243 136.045 101.912 134.112 100.376C132.425 98.5907 130.493 96.8063 128.013 96.1615C124.791 95.6161 121.469 96.1615 118.445 97.2521C115.42 98.5411 112.198 99.0865 108.975 99.5819C100.894 100.624 92.6148 100.276 84.7817 98.0946C81.0634 96.6075 76.9979 95.4177 72.9823 96.1613C71.2469 96.5084 70.0075 97.7477 68.4702 98.4913V98.4913Z" fill="#EC1C24" stroke="#EC1C24" stroke-width="0.244792"/>
<path d="M71.7426 100.624C73.6264 99.1366 76.2541 99.2851 78.5349 99.582C83.4428 100.921 88.252 102.755 93.3091 103.4C96.7297 103.945 100.25 103.796 103.721 103.747C110.017 103.648 116.016 101.466 121.965 99.731C124.84 99.0866 128.311 99.1857 130.344 101.615C131.881 103.598 132.921 106.275 132.575 108.853C132.178 106.028 130.79 103.003 128.013 101.813C126.08 101.07 123.849 101.168 121.816 101.665C117.156 103.003 112.545 104.738 107.736 105.333C104.761 105.878 101.737 105.68 98.7629 105.73C92.1189 105.878 85.7733 103.647 79.5266 101.764C76.8493 101.02 73.6266 100.921 71.3958 102.804C69.8591 103.995 69.3635 105.978 68.3716 107.564C68.5201 104.987 69.6107 102.26 71.7426 100.624Z" fill="#EC9D6E" stroke="#EC9D6E" stroke-width="0.244792"/>
<path d="M134.111 100.375C136.045 101.912 137.334 104.243 138.028 106.622C139.118 110.688 137.83 114.951 135.351 118.224C132.525 120.207 129.005 122.586 129.352 126.503C127.418 125.958 126.922 123.677 127.765 122.041C128.955 118.769 132.674 117.628 134.409 114.753C137.433 110.489 137.037 104.54 134.111 100.375Z" fill="#FAAF41" stroke="#FAAF41" stroke-width="0.244792"/>
<path d="M71.3953 102.805C73.6262 100.921 76.8489 101.02 79.5262 101.764C85.7729 103.648 92.1185 105.879 98.7624 105.73C101.737 105.68 104.761 105.879 107.735 105.334C112.545 104.739 117.155 103.003 121.816 101.665C123.848 101.169 126.079 101.07 128.013 101.813C130.789 103.003 132.177 106.028 132.574 108.853C132.327 111.679 130.393 113.96 128.162 115.547C124.988 112.275 118.94 112.869 116.66 116.885C114.379 120.405 116.065 125.462 119.783 127.247C115.519 129.627 110.661 130.916 105.802 131.511C102.282 131.709 98.7124 131.758 95.1926 131.511C90.3341 130.965 85.5249 129.627 81.2616 127.297C83.5418 125.908 85.4258 123.528 85.3266 120.752C85.5743 116.786 81.906 113.117 77.9397 113.365C76.006 113.316 74.3206 114.506 72.7835 115.497C70.2053 113.762 68.1235 110.837 68.3714 107.565C69.3631 105.978 69.8589 103.995 71.3953 102.805V102.805ZM81.5589 109.796C81.5589 110.192 81.6083 110.985 81.6083 111.382C81.7574 114.555 86.3181 116.191 88.6483 114.059C90.9785 112.473 91.0279 108.606 88.7968 106.92C86.3681 104.738 81.6083 106.375 81.5589 109.796ZM113.388 106.226C110.165 107.366 109.521 112.225 112.347 114.109C114.974 116.29 119.535 114.307 119.535 110.837C120.031 107.565 116.363 104.987 113.388 106.226V106.226ZM89.3426 117.282C88.4504 118.174 88.1526 119.463 87.9047 120.703C86.3181 121.149 86.1695 123.182 87.2604 124.223C90.5324 127.742 95.5893 128.833 100.25 128.883C105.059 128.833 110.265 127.892 113.883 124.47C114.479 123.826 115.47 123.033 114.825 122.091C114.181 120.653 112.248 120.901 111.256 121.793C108.282 124.371 104.216 125.363 100.398 125.165C100.151 122.339 99.3574 119.314 97.3741 117.232C95.3414 115.002 91.276 114.803 89.3426 117.282Z" fill="#E6C399" stroke="#E6C399" stroke-width="0.244792"/>
<path d="M81.5588 109.796C81.6082 106.375 86.368 104.739 88.797 106.92C91.0278 108.606 90.9786 112.473 88.6484 114.059C86.318 116.191 81.7574 114.555 81.6084 111.382C82.1038 110.936 82.1038 110.192 81.5588 109.796ZM113.388 106.226C116.363 104.987 120.031 107.564 119.535 110.837C119.535 114.307 114.974 116.29 112.347 114.109C109.52 112.225 110.165 107.366 113.388 106.226Z" fill="#2A262A" stroke="#2A262A" stroke-width="0.244792"/>
<path d="M81.5588 109.795C82.1041 110.192 82.1041 110.936 81.6082 111.382C81.6082 110.985 81.5588 110.192 81.5588 109.795Z" fill="#00031A" stroke="#00031A" stroke-width="0.244792"/>
<path d="M138.325 116.687C140.11 114.605 141.449 112.175 143.432 110.241C141.995 114.902 138.722 118.769 135.797 122.586C134.409 124.768 132.029 126.553 129.352 126.503C129.005 122.586 132.525 120.207 135.351 118.224C136.491 118.025 137.582 117.579 138.325 116.687V116.687Z" fill="#EE4032" stroke="#EE4032" stroke-width="0.244792"/>
<path d="M72.7834 115.497C74.3207 114.505 76.006 113.315 77.9397 113.365C81.906 113.117 85.5743 116.786 85.3266 120.752C85.426 123.528 83.542 125.908 81.2616 127.297C80.022 126.553 78.7826 125.908 77.7414 125.015C77.2455 124.074 77.5432 122.934 77.1962 121.942C76.353 119.463 74.6674 117.331 72.7834 115.497V115.497ZM116.66 116.885C118.94 112.869 124.989 112.275 128.162 115.546C125.683 117.976 123.204 121.099 123.501 124.768C122.461 125.858 121.072 126.503 119.783 127.246C116.065 125.462 114.38 120.405 116.66 116.885V116.885Z" fill="#EC9D6E" stroke="#EC9D6E" stroke-width="0.244792"/>
<path d="M89.3427 117.282C91.276 114.803 95.3415 115.002 97.3744 117.232C99.3577 119.314 100.151 122.339 100.399 125.165C104.216 125.363 108.282 124.371 111.256 121.793C112.248 120.9 114.181 120.652 114.826 122.09C115.47 123.032 114.479 123.826 113.884 124.47C110.265 127.892 105.059 128.833 100.25 128.883C95.5896 128.833 90.5327 127.742 87.2606 124.223C86.1698 123.182 86.3183 121.149 87.905 120.703C88.1527 119.463 88.4504 118.174 89.3427 117.282ZM90.5821 121.297C90.2844 122.686 92.0196 123.38 93.1104 123.677C93.061 122.339 93.1602 121.05 93.5069 119.761C94.0523 121.297 94.1017 123.033 94.9446 124.52C95.7877 125.015 96.7792 125.015 97.7208 125.165C97.5227 123.33 97.0765 121.496 96.0356 119.959C95.391 119.116 94.4983 118.224 93.3087 118.323C91.6729 118.075 90.6317 119.86 90.5821 121.297V121.297Z" fill="#2A262A" stroke="#2A262A" stroke-width="0.244792"/>
<path d="M90.5819 121.297C90.6315 119.86 91.6728 118.075 93.3086 118.323C94.4982 118.224 95.3909 119.116 96.0355 119.959C97.0763 121.496 97.5226 123.33 97.7207 125.165C96.7791 125.015 95.7876 125.015 94.9445 124.519C94.1015 123.032 94.0522 121.297 93.5067 119.76C93.1601 121.049 93.0607 122.339 93.1103 123.677C92.0194 123.38 90.2842 122.686 90.5819 121.297V121.297Z" fill="#EC1C24" stroke="#EC1C24" stroke-width="0.244792"/>
<path d="M65.4957 122.735C66.4377 122.884 67.0329 123.578 67.0823 124.47C66.3386 124.619 65.3469 123.479 65.4957 122.735Z" fill="#FAAF41" stroke="#FAAF41" stroke-width="0.244792"/>
<path d="M95.1929 131.51C98.7127 131.758 102.282 131.708 105.802 131.51C105.257 132.304 104.067 132.055 103.224 132.204C100.696 132.155 98.0189 132.502 95.54 131.907L95.1929 131.51Z" fill="#060B1D" stroke="#060B1D" stroke-width="0.244792"/>
</g>
<defs>
<clipPath id="clip0">
<rect width="200" height="200" fill="white"/>
</clipPath>
</defs>
</svg>
