<svg width="200" height="58" viewBox="0 0 200 58" fill="none" xmlns="http://www.w3.org/2000/svg">
<g clip-path="url(#clip0)">
<path fill-rule="evenodd" clip-rule="evenodd" d="M79.0576 43.243C82.8586 43.5144 87.2879 40.5703 88.8481 38.8895C94.2722 33.0378 94.4031 24.576 88.9424 18.4477C86.911 16.1665 82.1361 13.6452 79.1151 14.0002H68.178V43.2065L79.0837 43.243H79.0576ZM74.3455 36.9163V20.2904C76.0575 20.1784 77.7749 20.1784 79.4869 20.2904C80.8339 20.4461 82.1187 20.942 83.2199 21.7311C89.5026 26.0116 86.8848 36.2168 79.3822 36.9006C77.7055 37.0181 76.0229 37.0234 74.3455 36.9163Z" fill="#008CEB"/>
<path fill-rule="evenodd" clip-rule="evenodd" d="M175.073 43.2952H181.309V36.9998H193.681L193.717 43.2638H199.953V32.8864C199.953 29.7543 200.215 25.8497 199.429 23.0152C198.716 20.4203 197.171 18.1292 195.03 16.4915C192.889 14.8538 190.269 13.9593 187.571 13.9445C184.872 13.9297 182.243 14.7955 180.084 16.4096C177.925 18.0238 176.354 20.2978 175.613 22.8847C174.775 25.6827 175.058 29.6969 175.058 32.8028C175.058 36.3107 175.021 39.8395 175.058 43.3474L175.073 43.2952ZM181.314 30.6678C181.278 28.0578 181 25.2651 182.23 23.2553C182.77 22.3301 183.547 21.5639 184.48 21.0349C185.414 20.5058 186.471 20.2327 187.545 20.2433C188.613 20.2512 189.66 20.5353 190.586 21.0678C191.511 21.6003 192.281 22.363 192.822 23.2814C194.037 25.3695 193.749 27.9795 193.717 30.673L181.314 30.6678Z" fill="#008CEB"/>
<path fill-rule="evenodd" clip-rule="evenodd" d="M103.764 43.29H109.979C109.979 41.9746 109.811 37.9499 110.037 36.9946H122.361L122.403 43.2848H128.628C128.597 39.7978 128.628 36.316 128.628 32.8447C128.628 29.8693 128.906 25.6097 128.105 22.9683C127.387 20.3768 125.839 18.09 123.698 16.4561C121.557 14.8222 118.938 13.9306 116.242 13.917C113.545 13.9034 110.918 14.7686 108.76 16.3808C106.602 17.9931 105.032 20.2641 104.288 22.8483C103.455 25.5627 103.738 29.7126 103.738 32.7351C103.738 36.2221 103.66 39.7978 103.738 43.2744L103.764 43.29ZM109.984 30.6679C109.942 28.0579 109.675 25.2286 110.906 23.2606C111.446 22.3378 112.219 21.5721 113.148 21.04C114.077 20.5078 115.13 20.2278 116.202 20.2278C117.273 20.2278 118.326 20.5078 119.255 21.04C120.184 21.5721 120.957 22.3378 121.497 23.2606C122.717 25.3487 122.424 28.0005 122.403 30.6575L109.984 30.6679Z" fill="#008CEB"/>
<path fill-rule="evenodd" clip-rule="evenodd" d="M139.566 25.4061L139.477 29.7544C139.477 33.4084 139.299 40.2311 139.477 43.2013H145.571C145.712 41.1133 145.351 26.283 145.733 25.808C145.733 22.9265 148.754 20.2434 151.801 20.233C153.385 20.2235 154.91 20.8302 156.052 21.9243C156.827 22.629 158.016 24.2368 157.995 25.8602C158.278 26.022 158.052 41.5204 158.141 43.2378H164.241L164.194 25.5157C164.346 24.1272 163.508 21.9817 162.969 20.8959C161.969 18.8271 160.408 17.0788 158.462 15.849C156.517 14.6192 154.265 13.957 151.962 13.9375C149.659 13.9179 147.396 14.5417 145.43 15.7383C143.464 16.9349 141.873 18.6565 140.838 20.708C140.314 21.7781 139.435 23.981 139.566 25.4061Z" fill="#008CEB"/>
<path d="M28.5916 57.0136C44.3823 57.0136 57.1832 44.2507 57.1832 28.5068C57.1832 12.7629 44.3823 0 28.5916 0C12.8009 0 0 12.7629 0 28.5068C0 44.2507 12.8009 57.0136 28.5916 57.0136Z" fill="#008CEB"/>
<path d="M45.2514 28.6268V36.6501C45.2514 37.1721 45.0263 37.2817 44.5865 37.0259C43.9981 36.674 43.3858 36.3635 42.754 36.0968C40.8458 35.3388 38.7789 35.0644 36.7383 35.2981C34.511 35.5862 32.3252 36.1328 30.2252 36.9268C28.131 37.6315 26.0786 38.3936 23.9425 38.9835C22.1732 39.5073 20.3319 39.7487 18.487 39.6986C16.4423 39.6195 14.4552 39.0017 12.7278 37.9081C12.5108 37.7778 12.3327 37.5919 12.2121 37.3698C12.0915 37.1476 12.0327 36.8973 12.042 36.6449C12.042 31.39 12.042 26.1351 12.042 20.8803C12.042 20.6245 12.042 20.3217 12.2723 20.1912C12.5027 20.0607 12.7383 20.2747 12.9372 20.4052C14.813 21.6698 17.0346 22.3261 19.2985 22.2845C20.9173 22.2183 22.5182 21.9212 24.0524 21.4023C26.2304 20.7289 28.3351 19.8363 30.4765 19.0793C32.1434 18.4406 33.8525 17.9174 35.5917 17.5133C37.0843 17.1648 38.6331 17.1282 40.1406 17.4058C41.6481 17.6834 43.0816 18.2692 44.3509 19.1263C44.6419 19.3041 44.8801 19.5559 45.0412 19.8559C45.2022 20.1559 45.2802 20.4933 45.2671 20.8333C45.2671 23.4433 45.2671 26.0534 45.2671 28.6634L45.2514 28.6268Z" fill="#FEFEFE"/>
</g>
<defs>
<clipPath id="clip0">
<rect width="200" height="57.0136" fill="white"/>
</clipPath>
</defs>
</svg>
