<svg width="200" height="63" viewBox="0 0 200 63" fill="none" xmlns="http://www.w3.org/2000/svg">
<g clip-path="url(#clip0)">
<path fill-rule="evenodd" clip-rule="evenodd" d="M55.0378 52.844C48.8792 58.7284 40.6768 61.9608 32.1806 61.8515C23.6422 61.9811 15.392 58.7482 9.19361 52.844C6.27716 50.0012 3.95843 46.5986 2.37497 42.838C0.791516 39.0774 -0.0244141 35.0354 -0.0244141 30.9518C-0.0244141 26.8683 0.791516 22.8263 2.37497 19.0657C3.95843 15.3051 6.27716 11.9024 9.19361 9.05966C15.3841 3.12039 23.6499 -0.133675 32.2066 -7.10637e-05C40.7028 -0.10934 48.9052 3.12303 55.0637 9.00744C57.9834 11.8484 60.305 15.2504 61.8905 19.0112C63.4761 22.7721 64.2931 26.815 64.2931 30.8996C64.2931 34.9842 63.4761 39.0271 61.8905 42.788C60.305 46.5488 57.9834 49.9509 55.0637 52.7918L55.0378 52.844ZM32.2066 10.0779C29.4946 10.0515 26.8054 10.5778 24.3013 11.6248C21.7972 12.6718 19.53 14.218 17.6367 16.1699C15.7434 18.1219 14.2631 20.4392 13.2852 22.982C12.3073 25.5248 11.852 28.2404 11.9469 30.9649C11.9469 33.6324 12.4695 36.2737 13.4851 38.7382C14.5006 41.2026 15.9891 43.4418 17.8656 45.328C19.742 47.2142 21.9697 48.7105 24.4215 49.7313C26.8732 50.7521 29.5009 51.2775 32.1546 51.2775C34.8084 51.2775 37.4361 50.7521 39.8878 49.7313C42.3396 48.7105 44.5672 47.2142 46.4437 45.328C48.3202 43.4418 49.8087 41.2026 50.8242 38.7382C51.8397 36.2737 52.3624 33.6324 52.3624 30.9649C52.4569 28.2492 52.0048 25.5423 51.0333 23.0065C50.0617 20.4708 48.5907 18.1583 46.7085 16.2078C44.8263 14.2574 42.5717 12.709 40.0797 11.6557C37.5878 10.6023 34.9099 10.0657 32.2066 10.0779V10.0779ZM130.908 7.28426L106.207 62.6609L104.804 62.3998C97.7391 61.1205 96.3105 59.3451 93.0118 52.1391L74.4923 11.5922H67.5313V1.74921H93.843V11.5922H87.5572L102.44 45.1419L116.882 11.5922H109.09V1.74921H130.908V7.28426ZM190.648 52.844C184.41 58.6349 176.23 61.8508 167.739 61.8508C159.248 61.8508 151.068 58.6349 144.83 52.844C141.914 50.0012 139.595 46.5986 138.011 42.838C136.428 39.0774 135.612 35.0354 135.612 30.9518C135.612 26.8683 136.428 22.8263 138.011 19.0657C139.595 15.3051 141.914 11.9024 144.83 9.05966C151.068 3.26871 159.248 0.0528435 167.739 0.0528435C176.23 0.0528435 184.41 3.26871 190.648 9.05966C193.574 11.8968 195.902 15.2976 197.491 19.059C199.081 22.8203 199.9 26.8651 199.9 30.9518C199.9 35.0385 199.081 39.0833 197.491 42.8447C195.902 46.606 193.574 50.0068 190.648 52.844ZM167.921 10.0779C165.208 10.0517 162.517 10.5778 160.012 11.6245C157.506 12.6713 155.238 14.217 153.342 16.1685C151.447 18.1201 149.964 20.4371 148.983 22.98C148.002 25.5229 147.544 28.2391 147.635 30.9649C147.635 33.6324 148.158 36.2737 149.173 38.7382C150.189 41.2026 151.677 43.4418 153.554 45.328C155.43 47.2142 157.658 48.7105 160.11 49.7313C162.561 50.7521 165.189 51.2775 167.843 51.2775C170.497 51.2775 173.124 50.7521 175.576 49.7313C178.028 48.7105 180.256 47.2142 182.132 45.328C184.008 43.4418 185.497 41.2026 186.513 38.7382C187.528 36.2737 188.051 33.6324 188.051 30.9649C188.149 28.2505 187.7 25.5442 186.731 23.0085C185.763 20.4728 184.294 18.1601 182.414 16.2092C180.534 14.2583 178.281 12.7096 175.79 11.656C173.3 10.6023 170.623 10.0656 167.921 10.0779" fill="#4B2489"/>
</g>
<defs>
<clipPath id="clip0">
<rect width="200" height="62.6609" fill="white"/>
</clipPath>
</defs>
</svg>
