<svg width="90" height="90" viewBox="0 0 90 90" fill="none" xmlns="http://www.w3.org/2000/svg">
<circle cx="45" cy="45" r="45" fill="#E3FFF2"/>
<path d="M45.91 42.15C44.97 41.915 44.03 41.445 43.325 40.74C42.62 40.505 42.385 39.8 42.385 39.33C42.385 38.86 42.6199 38.155 43.0899 37.92C43.7949 37.45 44.5 36.98 45.205 37.215C46.615 37.215 47.7899 37.92 48.4949 38.86L50.61 36.04C49.905 35.335 49.1999 34.865 48.4949 34.395C47.7899 33.925 46.85 33.69 45.91 33.69V30.4H43.0899V33.69C41.9149 33.925 40.74 34.63 39.8 35.57C38.86 36.745 38.155 38.155 38.39 39.565C38.39 40.975 38.86 42.385 39.8 43.325C40.975 44.5 42.62 45.205 44.03 45.91C44.735 46.145 45.675 46.615 46.38 47.085C46.85 47.555 47.085 48.26 47.085 48.965C47.085 49.67 46.85 50.375 46.38 51.08C45.675 51.785 44.735 52.02 44.03 52.02C43.09 52.02 41.915 51.785 41.21 51.08C40.505 50.61 39.8 49.905 39.33 49.2L36.98 51.785C37.685 52.725 38.39 53.43 39.33 54.135C40.505 54.84 41.915 55.545 43.325 55.545V58.6H45.91V55.075C47.32 54.84 48.495 54.135 49.435 53.195C50.61 52.02 51.3149 50.14 51.3149 48.495C51.3149 47.085 50.8449 45.44 49.6699 44.5C48.4949 43.325 47.32 42.62 45.91 42.15V42.15ZM44.5 25.7C34.16 25.7 25.7 34.16 25.7 44.5C25.7 54.84 34.16 63.3 44.5 63.3C54.84 63.3 63.2999 54.84 63.2999 44.5C63.2999 34.16 54.84 25.7 44.5 25.7ZM44.5 60.715C35.57 60.715 28.285 53.43 28.285 44.5C28.285 35.57 35.57 28.285 44.5 28.285C53.4299 28.285 60.7149 35.57 60.7149 44.5C60.7149 53.43 53.4299 60.715 44.5 60.715V60.715Z" fill="#35DF91"/>
</svg>
