<svg width="90" height="90" viewBox="0 0 90 90" fill="none" xmlns="http://www.w3.org/2000/svg">
<circle cx="45" cy="45" r="45" fill="#E3FFF2"/>
<path d="M44.5 65.0625C40.4331 65.0625 36.4576 63.8565 33.0761 61.5971C29.6946 59.3377 27.0591 56.1262 25.5027 52.3689C23.9464 48.6116 23.5392 44.4772 24.3326 40.4885C25.126 36.4997 27.0844 32.8358 29.9601 29.9601C32.8358 27.0844 36.4997 25.126 40.4885 24.3326C44.4772 23.5392 48.6116 23.9464 52.3689 25.5027C56.1262 27.0591 59.3377 29.6946 61.5971 33.0761C63.8565 36.4576 65.0625 40.4331 65.0625 44.5C65.0625 49.9535 62.8961 55.1837 59.0399 59.0399C55.1837 62.8961 49.9535 65.0625 44.5 65.0625ZM44.5 26.875C41.0141 26.875 37.6065 27.9087 34.7081 29.8454C31.8097 31.782 29.5506 34.5347 28.2166 37.7552C26.8826 40.9758 26.5336 44.5196 27.2137 47.9385C27.8937 51.3574 29.5724 54.4979 32.0373 56.9628C34.5022 59.4277 37.6426 61.1063 41.0615 61.7863C44.4805 62.4664 48.0243 62.1174 51.2448 60.7834C54.4654 59.4494 57.218 57.1904 59.1547 54.2919C61.0913 51.3935 62.125 47.9859 62.125 44.5C62.125 39.8256 60.2681 35.3426 56.9628 32.0373C53.6574 28.7319 49.1745 26.875 44.5 26.875V26.875Z" fill="#35DF91"/>
<path d="M51.2416 53.3125L43.0312 45.1022V31.2812H45.9688V43.8831L53.3125 51.2416L51.2416 53.3125Z" fill="#35DF91"/>
</svg>
