<svg width="528" height="179" viewBox="0 0 528 179" fill="none" xmlns="http://www.w3.org/2000/svg">
<path d="M45.7734 76.9219L64.9688 41.625H89.2266L59.4141 92.3906L90 144H65.4609L45.7734 108.141L26.0859 144H1.54688L32.1328 92.3906L2.32031 41.625H26.5781L45.7734 76.9219ZM162.281 99.6328H121.781V127.055H169.312V144H100.688V41.625H169.172V58.7109H121.781V83.1094H162.281V99.6328ZM264.938 144H243.844L202.781 76.6406V144H181.688V41.625H202.781L243.914 109.125V41.625H264.938V144ZM367.453 95.1328C367.453 105.211 365.672 114.047 362.109 121.641C358.547 129.234 353.438 135.094 346.781 139.219C340.172 143.344 332.578 145.406 324 145.406C315.516 145.406 307.945 143.367 301.289 139.289C294.633 135.211 289.477 129.398 285.82 121.852C282.164 114.258 280.312 105.539 280.266 95.6953V90.6328C280.266 80.5547 282.07 71.6953 285.68 64.0547C289.336 56.3672 294.469 50.4844 301.078 46.4062C307.734 42.2812 315.328 40.2188 323.859 40.2188C332.391 40.2188 339.961 42.2812 346.57 46.4062C353.227 50.4844 358.359 56.3672 361.969 64.0547C365.625 71.6953 367.453 80.5312 367.453 90.5625V95.1328ZM346.078 90.4922C346.078 79.7578 344.156 71.6016 340.312 66.0234C336.469 60.4453 330.984 57.6562 323.859 57.6562C316.781 57.6562 311.32 60.4219 307.477 65.9531C303.633 71.4375 301.688 79.5 301.641 90.1406V95.1328C301.641 105.586 303.562 113.695 307.406 119.461C311.25 125.227 316.781 128.109 324 128.109C331.078 128.109 336.516 125.344 340.312 119.812C344.109 114.234 346.031 106.125 346.078 95.4844V90.4922ZM466.031 144H444.938L403.875 76.6406V144H382.781V41.625H403.875L445.008 109.125V41.625H466.031V144Z" fill="#121E2A"/>
<circle cx="507" cy="21" r="21" fill="#35DF91"/>
</svg>
